; NON-PLATED HOLES START AT T1
; THROUGH (PLATED) HOLES START AT T100
M48
INCH
T100C0.042000
T101C0.040278
T102C0.040000
T103C0.035000
T104C0.118000
T105C0.125984
T106C0.039370
%
T100
X015547Y003978
X013547Y003978
X014547Y003978
T101
X006947Y019978
X017547Y019978
X013547Y019978
X018547Y019978
X010547Y000978
X011947Y019978
X003947Y019978
X020547Y000978
X011547Y000978
X017547Y000978
X015547Y019978
X008947Y019978
X016547Y000978
X004947Y019978
X012547Y000978
X015547Y000978
X005947Y019978
X009547Y000978
X009947Y019978
X013547Y000978
X019547Y000978
X007947Y019978
X007547Y000978
X014547Y019978
X006547Y000978
X016547Y019978
X018547Y000978
X020547Y019978
X010947Y019978
X002946Y019978
X008547Y000978
X019547Y019978
T102
X016547Y015978
X002547Y010978
X002547Y003978
X002547Y001978
X002547Y002978
X002547Y006978
X002547Y004978
X002547Y007978
X002547Y008978
X016547Y013978
X002547Y005978
X016547Y014978
X002547Y009978
X019547Y015978
X019547Y014978
X019547Y013978
T103
X016547Y017978
X012547Y011978
X014547Y014978
X013547Y005978
X015547Y004978
X005729Y013569
X013547Y004978
X005729Y017569
X012547Y007978
X009132Y017564
X014547Y018978
X020547Y017978
X015547Y005978
X009132Y013564
T104
X019547Y005978
X021178Y004507
T105
X018296Y004497
T106
X016547Y011978
X010547Y017978
X019547Y011978
X010547Y014978
X019547Y009978
X008547Y005978
X020547Y009978
X003547Y016978
X017547Y009978
X020547Y011978
X007547Y005978
X012547Y014978
X016547Y009978
X012547Y017978
X006547Y005978
X007547Y017978
X003547Y017978
X017547Y011978
X005547Y005978
X007547Y016978
T00
M30
