G04 MADE WITH FRITZING*
G04 WWW.FRITZING.ORG*
G04 DOUBLE SIDED*
G04 HOLES PLATED*
G04 CONTOUR ON CENTER OF CONTOUR VECTOR*
%ASAXBY*%
%FSLAX23Y23*%
%MOIN*%
%OFA0B0*%
%SFA1.0B1.0*%
%ADD10C,0.162000*%
%ADD11C,0.059370*%
%ADD12C,0.065278*%
%ADD13C,0.074000*%
%ADD14C,0.082000*%
%ADD15C,0.070866*%
%ADD16C,0.075000*%
%ADD17C,0.060000*%
%ADD18R,0.082000X0.082000*%
%ADD19R,0.075000X0.075000*%
%ADD20C,0.048000*%
%ADD21R,0.001000X0.001000*%
%LNCOPPER1*%
G90*
G70*
G54D10*
X1830Y450D03*
X2118Y451D03*
X1955Y598D03*
X1830Y450D03*
X2118Y451D03*
X1955Y598D03*
G54D11*
X1255Y1798D03*
X1255Y1498D03*
X1055Y1798D03*
X1055Y1498D03*
X1255Y1798D03*
X1255Y1498D03*
X1055Y1798D03*
X1055Y1498D03*
G54D12*
X1655Y98D03*
X1755Y98D03*
X1855Y98D03*
X1955Y98D03*
X2055Y98D03*
X1195Y1998D03*
X1095Y1998D03*
X995Y1998D03*
X895Y1998D03*
X795Y1998D03*
X695Y1998D03*
X595Y1998D03*
X495Y1998D03*
X395Y1998D03*
X295Y1998D03*
X2055Y1998D03*
X1955Y1998D03*
X1855Y1998D03*
X1755Y1998D03*
X1655Y1998D03*
X1555Y1998D03*
X1455Y1998D03*
X1355Y1998D03*
X755Y98D03*
X655Y98D03*
X855Y98D03*
X955Y98D03*
X1055Y98D03*
X1155Y98D03*
X1255Y98D03*
X1355Y98D03*
X1555Y98D03*
G54D13*
X255Y698D03*
X255Y798D03*
X255Y898D03*
X255Y798D03*
X255Y1098D03*
X255Y998D03*
X255Y598D03*
X255Y498D03*
X255Y398D03*
X255Y298D03*
X255Y198D03*
X255Y1098D03*
G54D14*
X1355Y398D03*
X1455Y398D03*
X1555Y398D03*
X1355Y398D03*
X1455Y398D03*
X1555Y398D03*
G54D15*
X555Y598D03*
X655Y598D03*
X755Y598D03*
X855Y598D03*
X555Y598D03*
X655Y598D03*
X755Y598D03*
X855Y598D03*
G54D16*
X1355Y598D03*
X1355Y498D03*
X1355Y598D03*
X1355Y498D03*
X1555Y598D03*
X1555Y498D03*
X1555Y598D03*
X1555Y498D03*
G54D17*
X1655Y1398D03*
X1655Y1498D03*
X1655Y1598D03*
X1655Y1398D03*
X1655Y1498D03*
X1655Y1598D03*
X1655Y1398D03*
X1655Y1498D03*
X1655Y1598D03*
X1955Y1398D03*
X1955Y1498D03*
X1955Y1598D03*
X1955Y1398D03*
X1955Y1498D03*
X1955Y1598D03*
X1955Y1398D03*
X1955Y1498D03*
X1955Y1598D03*
G54D15*
X1655Y1198D03*
X1755Y1198D03*
X1655Y1198D03*
X1755Y1198D03*
X1655Y998D03*
X1755Y998D03*
X1655Y998D03*
X1755Y998D03*
X1955Y998D03*
X2055Y998D03*
X1955Y998D03*
X2055Y998D03*
X1955Y1198D03*
X2055Y1198D03*
X1955Y1198D03*
X2055Y1198D03*
X755Y1798D03*
X755Y1698D03*
X755Y1798D03*
X755Y1698D03*
X355Y1798D03*
X355Y1698D03*
X355Y1798D03*
X355Y1698D03*
G54D16*
X913Y1356D03*
X913Y1756D03*
X913Y1356D03*
X913Y1756D03*
X573Y1357D03*
X573Y1757D03*
X573Y1357D03*
X573Y1757D03*
X1455Y1498D03*
X1455Y1898D03*
X1455Y1498D03*
X1455Y1898D03*
X1655Y1798D03*
X2055Y1798D03*
X1655Y1798D03*
X2055Y1798D03*
X1255Y798D03*
X1255Y1198D03*
X1255Y798D03*
X1255Y1198D03*
G54D18*
X1355Y398D03*
X1355Y398D03*
G54D19*
X1355Y598D03*
X1355Y598D03*
X1555Y598D03*
X1555Y598D03*
G54D20*
X1697Y1398D02*
X1912Y1398D01*
D02*
X1515Y598D02*
X1394Y598D01*
D02*
X1357Y1398D02*
X1612Y1398D01*
D02*
X1355Y638D02*
X1357Y1398D01*
D02*
X1055Y1456D02*
X1055Y140D01*
D02*
X1157Y797D02*
X1215Y798D01*
D02*
X1157Y597D02*
X1157Y797D01*
D02*
X1157Y597D02*
X1357Y597D01*
D02*
X1357Y597D02*
X1157Y597D01*
D02*
X1155Y140D02*
X1157Y597D01*
G54D21*
X1025Y1827D02*
X1083Y1827D01*
X1225Y1827D02*
X1283Y1827D01*
X1025Y1826D02*
X1083Y1826D01*
X1225Y1826D02*
X1283Y1826D01*
X1025Y1825D02*
X1083Y1825D01*
X1225Y1825D02*
X1283Y1825D01*
X1025Y1824D02*
X1083Y1824D01*
X1225Y1824D02*
X1283Y1824D01*
X1025Y1823D02*
X1083Y1823D01*
X1225Y1823D02*
X1283Y1823D01*
X1025Y1822D02*
X1083Y1822D01*
X1225Y1822D02*
X1283Y1822D01*
X1025Y1821D02*
X1083Y1821D01*
X1225Y1821D02*
X1283Y1821D01*
X1025Y1820D02*
X1083Y1820D01*
X1225Y1820D02*
X1283Y1820D01*
X1025Y1819D02*
X1083Y1819D01*
X1225Y1819D02*
X1283Y1819D01*
X1025Y1818D02*
X1083Y1818D01*
X1225Y1818D02*
X1283Y1818D01*
X1025Y1817D02*
X1049Y1817D01*
X1059Y1817D02*
X1083Y1817D01*
X1225Y1817D02*
X1249Y1817D01*
X1259Y1817D02*
X1283Y1817D01*
X1025Y1816D02*
X1046Y1816D01*
X1062Y1816D02*
X1083Y1816D01*
X1225Y1816D02*
X1246Y1816D01*
X1262Y1816D02*
X1283Y1816D01*
X1025Y1815D02*
X1044Y1815D01*
X1064Y1815D02*
X1083Y1815D01*
X1225Y1815D02*
X1244Y1815D01*
X1264Y1815D02*
X1283Y1815D01*
X1025Y1814D02*
X1042Y1814D01*
X1066Y1814D02*
X1083Y1814D01*
X1225Y1814D02*
X1242Y1814D01*
X1266Y1814D02*
X1283Y1814D01*
X1025Y1813D02*
X1041Y1813D01*
X1067Y1813D02*
X1083Y1813D01*
X1225Y1813D02*
X1241Y1813D01*
X1267Y1813D02*
X1283Y1813D01*
X1025Y1812D02*
X1040Y1812D01*
X1068Y1812D02*
X1083Y1812D01*
X1225Y1812D02*
X1240Y1812D01*
X1268Y1812D02*
X1283Y1812D01*
X1025Y1811D02*
X1039Y1811D01*
X1069Y1811D02*
X1083Y1811D01*
X1225Y1811D02*
X1239Y1811D01*
X1269Y1811D02*
X1283Y1811D01*
X1025Y1810D02*
X1038Y1810D01*
X1070Y1810D02*
X1083Y1810D01*
X1225Y1810D02*
X1238Y1810D01*
X1270Y1810D02*
X1283Y1810D01*
X1025Y1809D02*
X1037Y1809D01*
X1071Y1809D02*
X1083Y1809D01*
X1225Y1809D02*
X1237Y1809D01*
X1271Y1809D02*
X1283Y1809D01*
X1025Y1808D02*
X1037Y1808D01*
X1071Y1808D02*
X1083Y1808D01*
X1225Y1808D02*
X1237Y1808D01*
X1271Y1808D02*
X1283Y1808D01*
X1025Y1807D02*
X1036Y1807D01*
X1072Y1807D02*
X1083Y1807D01*
X1225Y1807D02*
X1236Y1807D01*
X1272Y1807D02*
X1283Y1807D01*
X1025Y1806D02*
X1036Y1806D01*
X1073Y1806D02*
X1083Y1806D01*
X1225Y1806D02*
X1236Y1806D01*
X1273Y1806D02*
X1283Y1806D01*
X1025Y1805D02*
X1035Y1805D01*
X1073Y1805D02*
X1083Y1805D01*
X1225Y1805D02*
X1235Y1805D01*
X1273Y1805D02*
X1283Y1805D01*
X1025Y1804D02*
X1035Y1804D01*
X1073Y1804D02*
X1083Y1804D01*
X1225Y1804D02*
X1235Y1804D01*
X1273Y1804D02*
X1283Y1804D01*
X1025Y1803D02*
X1035Y1803D01*
X1074Y1803D02*
X1083Y1803D01*
X1225Y1803D02*
X1235Y1803D01*
X1274Y1803D02*
X1283Y1803D01*
X1025Y1802D02*
X1034Y1802D01*
X1074Y1802D02*
X1083Y1802D01*
X1225Y1802D02*
X1234Y1802D01*
X1274Y1802D02*
X1283Y1802D01*
X1025Y1801D02*
X1034Y1801D01*
X1074Y1801D02*
X1083Y1801D01*
X1225Y1801D02*
X1234Y1801D01*
X1274Y1801D02*
X1283Y1801D01*
X1025Y1800D02*
X1034Y1800D01*
X1074Y1800D02*
X1083Y1800D01*
X1225Y1800D02*
X1234Y1800D01*
X1274Y1800D02*
X1283Y1800D01*
X1025Y1799D02*
X1034Y1799D01*
X1074Y1799D02*
X1083Y1799D01*
X1225Y1799D02*
X1234Y1799D01*
X1274Y1799D02*
X1283Y1799D01*
X1025Y1798D02*
X1034Y1798D01*
X1074Y1798D02*
X1083Y1798D01*
X1225Y1798D02*
X1234Y1798D01*
X1274Y1798D02*
X1283Y1798D01*
X1025Y1797D02*
X1034Y1797D01*
X1074Y1797D02*
X1083Y1797D01*
X1225Y1797D02*
X1234Y1797D01*
X1274Y1797D02*
X1283Y1797D01*
X1025Y1796D02*
X1034Y1796D01*
X1074Y1796D02*
X1083Y1796D01*
X1225Y1796D02*
X1234Y1796D01*
X1274Y1796D02*
X1283Y1796D01*
X1025Y1795D02*
X1034Y1795D01*
X1074Y1795D02*
X1083Y1795D01*
X1225Y1795D02*
X1234Y1795D01*
X1274Y1795D02*
X1283Y1795D01*
X1025Y1794D02*
X1034Y1794D01*
X1074Y1794D02*
X1083Y1794D01*
X1225Y1794D02*
X1234Y1794D01*
X1274Y1794D02*
X1283Y1794D01*
X1025Y1793D02*
X1035Y1793D01*
X1074Y1793D02*
X1083Y1793D01*
X1225Y1793D02*
X1235Y1793D01*
X1274Y1793D02*
X1283Y1793D01*
X1025Y1792D02*
X1035Y1792D01*
X1073Y1792D02*
X1083Y1792D01*
X1225Y1792D02*
X1235Y1792D01*
X1273Y1792D02*
X1283Y1792D01*
X1025Y1791D02*
X1035Y1791D01*
X1073Y1791D02*
X1083Y1791D01*
X1225Y1791D02*
X1235Y1791D01*
X1273Y1791D02*
X1283Y1791D01*
X1025Y1790D02*
X1036Y1790D01*
X1073Y1790D02*
X1083Y1790D01*
X1225Y1790D02*
X1236Y1790D01*
X1273Y1790D02*
X1283Y1790D01*
X1025Y1789D02*
X1036Y1789D01*
X1072Y1789D02*
X1083Y1789D01*
X1225Y1789D02*
X1236Y1789D01*
X1272Y1789D02*
X1283Y1789D01*
X1025Y1788D02*
X1037Y1788D01*
X1071Y1788D02*
X1083Y1788D01*
X1225Y1788D02*
X1237Y1788D01*
X1271Y1788D02*
X1283Y1788D01*
X1025Y1787D02*
X1037Y1787D01*
X1071Y1787D02*
X1083Y1787D01*
X1225Y1787D02*
X1237Y1787D01*
X1271Y1787D02*
X1283Y1787D01*
X1025Y1786D02*
X1038Y1786D01*
X1070Y1786D02*
X1083Y1786D01*
X1225Y1786D02*
X1238Y1786D01*
X1270Y1786D02*
X1283Y1786D01*
X1025Y1785D02*
X1039Y1785D01*
X1069Y1785D02*
X1083Y1785D01*
X1225Y1785D02*
X1239Y1785D01*
X1269Y1785D02*
X1283Y1785D01*
X1025Y1784D02*
X1040Y1784D01*
X1068Y1784D02*
X1083Y1784D01*
X1225Y1784D02*
X1240Y1784D01*
X1268Y1784D02*
X1283Y1784D01*
X1025Y1783D02*
X1041Y1783D01*
X1067Y1783D02*
X1083Y1783D01*
X1225Y1783D02*
X1241Y1783D01*
X1267Y1783D02*
X1283Y1783D01*
X1025Y1782D02*
X1042Y1782D01*
X1066Y1782D02*
X1083Y1782D01*
X1225Y1782D02*
X1242Y1782D01*
X1266Y1782D02*
X1283Y1782D01*
X1025Y1781D02*
X1044Y1781D01*
X1064Y1781D02*
X1083Y1781D01*
X1225Y1781D02*
X1244Y1781D01*
X1264Y1781D02*
X1283Y1781D01*
X1025Y1780D02*
X1046Y1780D01*
X1063Y1780D02*
X1083Y1780D01*
X1225Y1780D02*
X1246Y1780D01*
X1263Y1780D02*
X1283Y1780D01*
X1025Y1779D02*
X1049Y1779D01*
X1060Y1779D02*
X1083Y1779D01*
X1225Y1779D02*
X1249Y1779D01*
X1260Y1779D02*
X1283Y1779D01*
X1025Y1778D02*
X1083Y1778D01*
X1225Y1778D02*
X1283Y1778D01*
X1025Y1777D02*
X1083Y1777D01*
X1225Y1777D02*
X1283Y1777D01*
X1025Y1776D02*
X1083Y1776D01*
X1225Y1776D02*
X1283Y1776D01*
X1025Y1775D02*
X1083Y1775D01*
X1225Y1775D02*
X1283Y1775D01*
X1025Y1774D02*
X1083Y1774D01*
X1225Y1774D02*
X1283Y1774D01*
X1025Y1773D02*
X1083Y1773D01*
X1225Y1773D02*
X1283Y1773D01*
X1025Y1772D02*
X1083Y1772D01*
X1225Y1772D02*
X1283Y1772D01*
X1025Y1771D02*
X1083Y1771D01*
X1225Y1771D02*
X1283Y1771D01*
X1025Y1770D02*
X1083Y1770D01*
X1225Y1770D02*
X1283Y1770D01*
X1025Y1769D02*
X1083Y1769D01*
X1225Y1769D02*
X1283Y1769D01*
X1617Y1627D02*
X1691Y1627D01*
X1917Y1627D02*
X1991Y1627D01*
X1614Y1626D02*
X1694Y1626D01*
X1914Y1626D02*
X1994Y1626D01*
X1612Y1625D02*
X1697Y1625D01*
X1912Y1625D02*
X1997Y1625D01*
X1610Y1624D02*
X1698Y1624D01*
X1910Y1624D02*
X1998Y1624D01*
X1608Y1623D02*
X1700Y1623D01*
X1908Y1623D02*
X2000Y1623D01*
X1607Y1622D02*
X1701Y1622D01*
X1907Y1622D02*
X2001Y1622D01*
X1605Y1621D02*
X1703Y1621D01*
X1905Y1621D02*
X2003Y1621D01*
X1604Y1620D02*
X1704Y1620D01*
X1904Y1620D02*
X2004Y1620D01*
X1603Y1619D02*
X1705Y1619D01*
X1903Y1619D02*
X2005Y1619D01*
X1602Y1618D02*
X1706Y1618D01*
X1902Y1618D02*
X2006Y1618D01*
X1601Y1617D02*
X1648Y1617D01*
X1660Y1617D02*
X1707Y1617D01*
X1901Y1617D02*
X1948Y1617D01*
X1960Y1617D02*
X2007Y1617D01*
X1601Y1616D02*
X1645Y1616D01*
X1663Y1616D02*
X1707Y1616D01*
X1901Y1616D02*
X1945Y1616D01*
X1963Y1616D02*
X2007Y1616D01*
X1600Y1615D02*
X1643Y1615D01*
X1665Y1615D02*
X1708Y1615D01*
X1900Y1615D02*
X1943Y1615D01*
X1965Y1615D02*
X2008Y1615D01*
X1599Y1614D02*
X1642Y1614D01*
X1666Y1614D02*
X1709Y1614D01*
X1899Y1614D02*
X1942Y1614D01*
X1966Y1614D02*
X2009Y1614D01*
X1599Y1613D02*
X1640Y1613D01*
X1668Y1613D02*
X1709Y1613D01*
X1899Y1613D02*
X1940Y1613D01*
X1968Y1613D02*
X2009Y1613D01*
X1598Y1612D02*
X1639Y1612D01*
X1669Y1612D02*
X1710Y1612D01*
X1898Y1612D02*
X1939Y1612D01*
X1969Y1612D02*
X2010Y1612D01*
X1598Y1611D02*
X1638Y1611D01*
X1670Y1611D02*
X1711Y1611D01*
X1898Y1611D02*
X1938Y1611D01*
X1970Y1611D02*
X2011Y1611D01*
X1597Y1610D02*
X1638Y1610D01*
X1670Y1610D02*
X1711Y1610D01*
X1897Y1610D02*
X1938Y1610D01*
X1970Y1610D02*
X2011Y1610D01*
X1597Y1609D02*
X1637Y1609D01*
X1671Y1609D02*
X1711Y1609D01*
X1897Y1609D02*
X1937Y1609D01*
X1971Y1609D02*
X2011Y1609D01*
X1596Y1608D02*
X1636Y1608D01*
X1672Y1608D02*
X1712Y1608D01*
X1896Y1608D02*
X1936Y1608D01*
X1972Y1608D02*
X2012Y1608D01*
X1596Y1607D02*
X1636Y1607D01*
X1672Y1607D02*
X1712Y1607D01*
X1896Y1607D02*
X1936Y1607D01*
X1972Y1607D02*
X2012Y1607D01*
X1596Y1606D02*
X1635Y1606D01*
X1673Y1606D02*
X1712Y1606D01*
X1896Y1606D02*
X1935Y1606D01*
X1973Y1606D02*
X2012Y1606D01*
X1595Y1605D02*
X1635Y1605D01*
X1673Y1605D02*
X1713Y1605D01*
X1895Y1605D02*
X1935Y1605D01*
X1973Y1605D02*
X2013Y1605D01*
X1595Y1604D02*
X1635Y1604D01*
X1674Y1604D02*
X1713Y1604D01*
X1895Y1604D02*
X1935Y1604D01*
X1973Y1604D02*
X2013Y1604D01*
X1595Y1603D02*
X1634Y1603D01*
X1674Y1603D02*
X1713Y1603D01*
X1895Y1603D02*
X1934Y1603D01*
X1974Y1603D02*
X2013Y1603D01*
X1595Y1602D02*
X1634Y1602D01*
X1674Y1602D02*
X1713Y1602D01*
X1895Y1602D02*
X1934Y1602D01*
X1974Y1602D02*
X2013Y1602D01*
X1595Y1601D02*
X1634Y1601D01*
X1674Y1601D02*
X1713Y1601D01*
X1895Y1601D02*
X1934Y1601D01*
X1974Y1601D02*
X2013Y1601D01*
X1595Y1600D02*
X1634Y1600D01*
X1674Y1600D02*
X1713Y1600D01*
X1895Y1600D02*
X1934Y1600D01*
X1974Y1600D02*
X2013Y1600D01*
X1595Y1599D02*
X1634Y1599D01*
X1674Y1599D02*
X1713Y1599D01*
X1895Y1599D02*
X1934Y1599D01*
X1974Y1599D02*
X2013Y1599D01*
X1595Y1598D02*
X1634Y1598D01*
X1675Y1598D02*
X1714Y1598D01*
X1895Y1598D02*
X1934Y1598D01*
X1974Y1598D02*
X2014Y1598D01*
X1595Y1597D02*
X1634Y1597D01*
X1674Y1597D02*
X1713Y1597D01*
X1895Y1597D02*
X1934Y1597D01*
X1974Y1597D02*
X2013Y1597D01*
X1595Y1596D02*
X1634Y1596D01*
X1674Y1596D02*
X1713Y1596D01*
X1895Y1596D02*
X1934Y1596D01*
X1974Y1596D02*
X2013Y1596D01*
X1595Y1595D02*
X1634Y1595D01*
X1674Y1595D02*
X1713Y1595D01*
X1895Y1595D02*
X1934Y1595D01*
X1974Y1595D02*
X2013Y1595D01*
X1595Y1594D02*
X1634Y1594D01*
X1674Y1594D02*
X1713Y1594D01*
X1895Y1594D02*
X1934Y1594D01*
X1974Y1594D02*
X2013Y1594D01*
X1595Y1593D02*
X1634Y1593D01*
X1674Y1593D02*
X1713Y1593D01*
X1895Y1593D02*
X1934Y1593D01*
X1974Y1593D02*
X2013Y1593D01*
X1595Y1592D02*
X1635Y1592D01*
X1674Y1592D02*
X1713Y1592D01*
X1895Y1592D02*
X1935Y1592D01*
X1973Y1592D02*
X2013Y1592D01*
X1595Y1591D02*
X1635Y1591D01*
X1673Y1591D02*
X1713Y1591D01*
X1895Y1591D02*
X1935Y1591D01*
X1973Y1591D02*
X2013Y1591D01*
X1596Y1590D02*
X1635Y1590D01*
X1673Y1590D02*
X1712Y1590D01*
X1896Y1590D02*
X1935Y1590D01*
X1973Y1590D02*
X2012Y1590D01*
X1596Y1589D02*
X1636Y1589D01*
X1672Y1589D02*
X1712Y1589D01*
X1896Y1589D02*
X1936Y1589D01*
X1972Y1589D02*
X2012Y1589D01*
X1596Y1588D02*
X1636Y1588D01*
X1672Y1588D02*
X1712Y1588D01*
X1896Y1588D02*
X1936Y1588D01*
X1972Y1588D02*
X2012Y1588D01*
X1597Y1587D02*
X1637Y1587D01*
X1671Y1587D02*
X1711Y1587D01*
X1897Y1587D02*
X1937Y1587D01*
X1971Y1587D02*
X2011Y1587D01*
X1597Y1586D02*
X1638Y1586D01*
X1670Y1586D02*
X1711Y1586D01*
X1897Y1586D02*
X1938Y1586D01*
X1970Y1586D02*
X2011Y1586D01*
X1598Y1585D02*
X1638Y1585D01*
X1670Y1585D02*
X1711Y1585D01*
X1898Y1585D02*
X1938Y1585D01*
X1970Y1585D02*
X2011Y1585D01*
X1598Y1584D02*
X1639Y1584D01*
X1669Y1584D02*
X1710Y1584D01*
X1898Y1584D02*
X1939Y1584D01*
X1969Y1584D02*
X2010Y1584D01*
X1599Y1583D02*
X1640Y1583D01*
X1668Y1583D02*
X1709Y1583D01*
X1899Y1583D02*
X1940Y1583D01*
X1968Y1583D02*
X2009Y1583D01*
X1599Y1582D02*
X1642Y1582D01*
X1666Y1582D02*
X1709Y1582D01*
X1899Y1582D02*
X1942Y1582D01*
X1966Y1582D02*
X2009Y1582D01*
X1600Y1581D02*
X1643Y1581D01*
X1665Y1581D02*
X1708Y1581D01*
X1900Y1581D02*
X1943Y1581D01*
X1965Y1581D02*
X2008Y1581D01*
X1601Y1580D02*
X1645Y1580D01*
X1663Y1580D02*
X1707Y1580D01*
X1901Y1580D02*
X1945Y1580D01*
X1963Y1580D02*
X2007Y1580D01*
X1601Y1579D02*
X1648Y1579D01*
X1660Y1579D02*
X1707Y1579D01*
X1901Y1579D02*
X1948Y1579D01*
X1960Y1579D02*
X2007Y1579D01*
X1602Y1578D02*
X1706Y1578D01*
X1902Y1578D02*
X2006Y1578D01*
X1603Y1577D02*
X1705Y1577D01*
X1903Y1577D02*
X2005Y1577D01*
X1604Y1576D02*
X1704Y1576D01*
X1904Y1576D02*
X2004Y1576D01*
X1605Y1575D02*
X1703Y1575D01*
X1905Y1575D02*
X2003Y1575D01*
X1607Y1574D02*
X1701Y1574D01*
X1907Y1574D02*
X2001Y1574D01*
X1608Y1573D02*
X1700Y1573D01*
X1908Y1573D02*
X2000Y1573D01*
X1610Y1572D02*
X1698Y1572D01*
X1910Y1572D02*
X1998Y1572D01*
X1612Y1571D02*
X1697Y1571D01*
X1912Y1571D02*
X1997Y1571D01*
X1614Y1570D02*
X1694Y1570D01*
X1914Y1570D02*
X1994Y1570D01*
X1617Y1569D02*
X1691Y1569D01*
X1917Y1569D02*
X1991Y1569D01*
X1625Y1568D02*
X1683Y1568D01*
X1925Y1568D02*
X1983Y1568D01*
X1624Y1528D02*
X1684Y1528D01*
X1924Y1528D02*
X1984Y1528D01*
X1025Y1527D02*
X1083Y1527D01*
X1225Y1527D02*
X1283Y1527D01*
X1617Y1527D02*
X1691Y1527D01*
X1917Y1527D02*
X1991Y1527D01*
X1025Y1526D02*
X1083Y1526D01*
X1225Y1526D02*
X1283Y1526D01*
X1614Y1526D02*
X1694Y1526D01*
X1914Y1526D02*
X1994Y1526D01*
X1025Y1525D02*
X1083Y1525D01*
X1225Y1525D02*
X1283Y1525D01*
X1612Y1525D02*
X1697Y1525D01*
X1911Y1525D02*
X1997Y1525D01*
X1025Y1524D02*
X1083Y1524D01*
X1225Y1524D02*
X1283Y1524D01*
X1610Y1524D02*
X1698Y1524D01*
X1910Y1524D02*
X1998Y1524D01*
X1025Y1523D02*
X1083Y1523D01*
X1225Y1523D02*
X1283Y1523D01*
X1608Y1523D02*
X1700Y1523D01*
X1908Y1523D02*
X2000Y1523D01*
X1025Y1522D02*
X1083Y1522D01*
X1225Y1522D02*
X1283Y1522D01*
X1607Y1522D02*
X1702Y1522D01*
X1907Y1522D02*
X2001Y1522D01*
X1025Y1521D02*
X1083Y1521D01*
X1225Y1521D02*
X1283Y1521D01*
X1605Y1521D02*
X1703Y1521D01*
X1905Y1521D02*
X2003Y1521D01*
X1025Y1520D02*
X1083Y1520D01*
X1225Y1520D02*
X1283Y1520D01*
X1604Y1520D02*
X1704Y1520D01*
X1904Y1520D02*
X2004Y1520D01*
X1025Y1519D02*
X1083Y1519D01*
X1225Y1519D02*
X1283Y1519D01*
X1603Y1519D02*
X1705Y1519D01*
X1903Y1519D02*
X2005Y1519D01*
X1025Y1518D02*
X1083Y1518D01*
X1225Y1518D02*
X1283Y1518D01*
X1602Y1518D02*
X1706Y1518D01*
X1902Y1518D02*
X2006Y1518D01*
X1025Y1517D02*
X1049Y1517D01*
X1060Y1517D02*
X1083Y1517D01*
X1225Y1517D02*
X1249Y1517D01*
X1260Y1517D02*
X1283Y1517D01*
X1601Y1517D02*
X1648Y1517D01*
X1661Y1517D02*
X1707Y1517D01*
X1901Y1517D02*
X1948Y1517D01*
X1960Y1517D02*
X2007Y1517D01*
X1025Y1516D02*
X1046Y1516D01*
X1063Y1516D02*
X1083Y1516D01*
X1225Y1516D02*
X1246Y1516D01*
X1263Y1516D02*
X1283Y1516D01*
X1601Y1516D02*
X1645Y1516D01*
X1663Y1516D02*
X1708Y1516D01*
X1901Y1516D02*
X1945Y1516D01*
X1963Y1516D02*
X2007Y1516D01*
X1025Y1515D02*
X1044Y1515D01*
X1064Y1515D02*
X1083Y1515D01*
X1225Y1515D02*
X1244Y1515D01*
X1264Y1515D02*
X1283Y1515D01*
X1600Y1515D02*
X1643Y1515D01*
X1665Y1515D02*
X1708Y1515D01*
X1900Y1515D02*
X1943Y1515D01*
X1965Y1515D02*
X2008Y1515D01*
X1025Y1514D02*
X1042Y1514D01*
X1066Y1514D02*
X1083Y1514D01*
X1225Y1514D02*
X1242Y1514D01*
X1266Y1514D02*
X1283Y1514D01*
X1599Y1514D02*
X1642Y1514D01*
X1666Y1514D02*
X1709Y1514D01*
X1899Y1514D02*
X1942Y1514D01*
X1966Y1514D02*
X2009Y1514D01*
X1025Y1513D02*
X1041Y1513D01*
X1067Y1513D02*
X1083Y1513D01*
X1225Y1513D02*
X1241Y1513D01*
X1267Y1513D02*
X1283Y1513D01*
X1599Y1513D02*
X1640Y1513D01*
X1668Y1513D02*
X1710Y1513D01*
X1899Y1513D02*
X1940Y1513D01*
X1968Y1513D02*
X2009Y1513D01*
X1025Y1512D02*
X1040Y1512D01*
X1068Y1512D02*
X1083Y1512D01*
X1225Y1512D02*
X1240Y1512D01*
X1268Y1512D02*
X1283Y1512D01*
X1598Y1512D02*
X1639Y1512D01*
X1669Y1512D02*
X1710Y1512D01*
X1898Y1512D02*
X1939Y1512D01*
X1969Y1512D02*
X2010Y1512D01*
X1025Y1511D02*
X1039Y1511D01*
X1069Y1511D02*
X1083Y1511D01*
X1225Y1511D02*
X1239Y1511D01*
X1269Y1511D02*
X1283Y1511D01*
X1598Y1511D02*
X1638Y1511D01*
X1670Y1511D02*
X1711Y1511D01*
X1898Y1511D02*
X1938Y1511D01*
X1970Y1511D02*
X2011Y1511D01*
X1025Y1510D02*
X1038Y1510D01*
X1070Y1510D02*
X1083Y1510D01*
X1225Y1510D02*
X1238Y1510D01*
X1270Y1510D02*
X1283Y1510D01*
X1597Y1510D02*
X1638Y1510D01*
X1670Y1510D02*
X1711Y1510D01*
X1897Y1510D02*
X1938Y1510D01*
X1970Y1510D02*
X2011Y1510D01*
X1025Y1509D02*
X1037Y1509D01*
X1071Y1509D02*
X1083Y1509D01*
X1225Y1509D02*
X1237Y1509D01*
X1271Y1509D02*
X1283Y1509D01*
X1597Y1509D02*
X1637Y1509D01*
X1671Y1509D02*
X1711Y1509D01*
X1897Y1509D02*
X1937Y1509D01*
X1971Y1509D02*
X2011Y1509D01*
X1025Y1508D02*
X1037Y1508D01*
X1071Y1508D02*
X1083Y1508D01*
X1225Y1508D02*
X1237Y1508D01*
X1271Y1508D02*
X1283Y1508D01*
X1596Y1508D02*
X1636Y1508D01*
X1672Y1508D02*
X1712Y1508D01*
X1896Y1508D02*
X1936Y1508D01*
X1972Y1508D02*
X2012Y1508D01*
X1025Y1507D02*
X1036Y1507D01*
X1072Y1507D02*
X1083Y1507D01*
X1225Y1507D02*
X1236Y1507D01*
X1272Y1507D02*
X1283Y1507D01*
X1596Y1507D02*
X1636Y1507D01*
X1672Y1507D02*
X1712Y1507D01*
X1896Y1507D02*
X1936Y1507D01*
X1972Y1507D02*
X2012Y1507D01*
X1025Y1506D02*
X1036Y1506D01*
X1073Y1506D02*
X1083Y1506D01*
X1225Y1506D02*
X1236Y1506D01*
X1273Y1506D02*
X1283Y1506D01*
X1596Y1506D02*
X1635Y1506D01*
X1673Y1506D02*
X1712Y1506D01*
X1896Y1506D02*
X1935Y1506D01*
X1973Y1506D02*
X2012Y1506D01*
X1025Y1505D02*
X1035Y1505D01*
X1073Y1505D02*
X1083Y1505D01*
X1225Y1505D02*
X1235Y1505D01*
X1273Y1505D02*
X1283Y1505D01*
X1595Y1505D02*
X1635Y1505D01*
X1673Y1505D02*
X1713Y1505D01*
X1895Y1505D02*
X1935Y1505D01*
X1973Y1505D02*
X2013Y1505D01*
X1025Y1504D02*
X1035Y1504D01*
X1073Y1504D02*
X1083Y1504D01*
X1225Y1504D02*
X1235Y1504D01*
X1273Y1504D02*
X1283Y1504D01*
X1595Y1504D02*
X1635Y1504D01*
X1674Y1504D02*
X1713Y1504D01*
X1895Y1504D02*
X1935Y1504D01*
X1973Y1504D02*
X2013Y1504D01*
X1025Y1503D02*
X1035Y1503D01*
X1074Y1503D02*
X1083Y1503D01*
X1225Y1503D02*
X1235Y1503D01*
X1274Y1503D02*
X1283Y1503D01*
X1595Y1503D02*
X1634Y1503D01*
X1674Y1503D02*
X1713Y1503D01*
X1895Y1503D02*
X1934Y1503D01*
X1974Y1503D02*
X2013Y1503D01*
X1025Y1502D02*
X1034Y1502D01*
X1074Y1502D02*
X1083Y1502D01*
X1225Y1502D02*
X1234Y1502D01*
X1274Y1502D02*
X1283Y1502D01*
X1595Y1502D02*
X1634Y1502D01*
X1674Y1502D02*
X1713Y1502D01*
X1895Y1502D02*
X1934Y1502D01*
X1974Y1502D02*
X2013Y1502D01*
X1025Y1501D02*
X1034Y1501D01*
X1074Y1501D02*
X1083Y1501D01*
X1225Y1501D02*
X1234Y1501D01*
X1274Y1501D02*
X1283Y1501D01*
X1595Y1501D02*
X1634Y1501D01*
X1674Y1501D02*
X1713Y1501D01*
X1895Y1501D02*
X1934Y1501D01*
X1974Y1501D02*
X2013Y1501D01*
X1025Y1500D02*
X1034Y1500D01*
X1074Y1500D02*
X1083Y1500D01*
X1225Y1500D02*
X1234Y1500D01*
X1274Y1500D02*
X1283Y1500D01*
X1595Y1500D02*
X1634Y1500D01*
X1674Y1500D02*
X1713Y1500D01*
X1895Y1500D02*
X1934Y1500D01*
X1974Y1500D02*
X2013Y1500D01*
X1025Y1499D02*
X1034Y1499D01*
X1074Y1499D02*
X1083Y1499D01*
X1225Y1499D02*
X1234Y1499D01*
X1274Y1499D02*
X1283Y1499D01*
X1595Y1499D02*
X1634Y1499D01*
X1674Y1499D02*
X1713Y1499D01*
X1895Y1499D02*
X1934Y1499D01*
X1974Y1499D02*
X2013Y1499D01*
X1025Y1498D02*
X1034Y1498D01*
X1074Y1498D02*
X1083Y1498D01*
X1225Y1498D02*
X1234Y1498D01*
X1274Y1498D02*
X1283Y1498D01*
X1595Y1498D02*
X1634Y1498D01*
X1675Y1498D02*
X1714Y1498D01*
X1895Y1498D02*
X1934Y1498D01*
X1974Y1498D02*
X2014Y1498D01*
X1025Y1497D02*
X1034Y1497D01*
X1074Y1497D02*
X1083Y1497D01*
X1225Y1497D02*
X1234Y1497D01*
X1274Y1497D02*
X1283Y1497D01*
X1595Y1497D02*
X1634Y1497D01*
X1674Y1497D02*
X1713Y1497D01*
X1895Y1497D02*
X1934Y1497D01*
X1974Y1497D02*
X2013Y1497D01*
X1025Y1496D02*
X1034Y1496D01*
X1074Y1496D02*
X1083Y1496D01*
X1225Y1496D02*
X1234Y1496D01*
X1274Y1496D02*
X1283Y1496D01*
X1595Y1496D02*
X1634Y1496D01*
X1674Y1496D02*
X1713Y1496D01*
X1895Y1496D02*
X1934Y1496D01*
X1974Y1496D02*
X2013Y1496D01*
X1025Y1495D02*
X1034Y1495D01*
X1074Y1495D02*
X1083Y1495D01*
X1225Y1495D02*
X1234Y1495D01*
X1274Y1495D02*
X1283Y1495D01*
X1595Y1495D02*
X1634Y1495D01*
X1674Y1495D02*
X1713Y1495D01*
X1895Y1495D02*
X1934Y1495D01*
X1974Y1495D02*
X2013Y1495D01*
X1025Y1494D02*
X1034Y1494D01*
X1074Y1494D02*
X1083Y1494D01*
X1225Y1494D02*
X1234Y1494D01*
X1274Y1494D02*
X1283Y1494D01*
X1595Y1494D02*
X1634Y1494D01*
X1674Y1494D02*
X1713Y1494D01*
X1895Y1494D02*
X1934Y1494D01*
X1974Y1494D02*
X2013Y1494D01*
X1025Y1493D02*
X1035Y1493D01*
X1074Y1493D02*
X1083Y1493D01*
X1225Y1493D02*
X1235Y1493D01*
X1274Y1493D02*
X1283Y1493D01*
X1595Y1493D02*
X1634Y1493D01*
X1674Y1493D02*
X1713Y1493D01*
X1895Y1493D02*
X1934Y1493D01*
X1974Y1493D02*
X2013Y1493D01*
X1025Y1492D02*
X1035Y1492D01*
X1073Y1492D02*
X1083Y1492D01*
X1225Y1492D02*
X1235Y1492D01*
X1273Y1492D02*
X1283Y1492D01*
X1595Y1492D02*
X1635Y1492D01*
X1674Y1492D02*
X1713Y1492D01*
X1895Y1492D02*
X1935Y1492D01*
X1973Y1492D02*
X2013Y1492D01*
X1025Y1491D02*
X1035Y1491D01*
X1073Y1491D02*
X1083Y1491D01*
X1225Y1491D02*
X1235Y1491D01*
X1273Y1491D02*
X1283Y1491D01*
X1595Y1491D02*
X1635Y1491D01*
X1673Y1491D02*
X1713Y1491D01*
X1895Y1491D02*
X1935Y1491D01*
X1973Y1491D02*
X2013Y1491D01*
X1025Y1490D02*
X1036Y1490D01*
X1073Y1490D02*
X1083Y1490D01*
X1225Y1490D02*
X1236Y1490D01*
X1273Y1490D02*
X1283Y1490D01*
X1596Y1490D02*
X1635Y1490D01*
X1673Y1490D02*
X1712Y1490D01*
X1896Y1490D02*
X1935Y1490D01*
X1973Y1490D02*
X2012Y1490D01*
X1025Y1489D02*
X1036Y1489D01*
X1072Y1489D02*
X1083Y1489D01*
X1225Y1489D02*
X1236Y1489D01*
X1272Y1489D02*
X1283Y1489D01*
X1596Y1489D02*
X1636Y1489D01*
X1672Y1489D02*
X1712Y1489D01*
X1896Y1489D02*
X1936Y1489D01*
X1972Y1489D02*
X2012Y1489D01*
X1025Y1488D02*
X1037Y1488D01*
X1071Y1488D02*
X1083Y1488D01*
X1225Y1488D02*
X1237Y1488D01*
X1271Y1488D02*
X1283Y1488D01*
X1596Y1488D02*
X1636Y1488D01*
X1672Y1488D02*
X1712Y1488D01*
X1896Y1488D02*
X1936Y1488D01*
X1972Y1488D02*
X2012Y1488D01*
X1025Y1487D02*
X1037Y1487D01*
X1071Y1487D02*
X1083Y1487D01*
X1225Y1487D02*
X1237Y1487D01*
X1271Y1487D02*
X1283Y1487D01*
X1597Y1487D02*
X1637Y1487D01*
X1671Y1487D02*
X1711Y1487D01*
X1897Y1487D02*
X1937Y1487D01*
X1971Y1487D02*
X2011Y1487D01*
X1025Y1486D02*
X1038Y1486D01*
X1070Y1486D02*
X1083Y1486D01*
X1225Y1486D02*
X1238Y1486D01*
X1270Y1486D02*
X1283Y1486D01*
X1597Y1486D02*
X1638Y1486D01*
X1670Y1486D02*
X1711Y1486D01*
X1897Y1486D02*
X1938Y1486D01*
X1970Y1486D02*
X2011Y1486D01*
X1025Y1485D02*
X1039Y1485D01*
X1069Y1485D02*
X1083Y1485D01*
X1225Y1485D02*
X1239Y1485D01*
X1269Y1485D02*
X1283Y1485D01*
X1598Y1485D02*
X1638Y1485D01*
X1670Y1485D02*
X1711Y1485D01*
X1898Y1485D02*
X1938Y1485D01*
X1970Y1485D02*
X2011Y1485D01*
X1025Y1484D02*
X1040Y1484D01*
X1068Y1484D02*
X1083Y1484D01*
X1225Y1484D02*
X1240Y1484D01*
X1268Y1484D02*
X1283Y1484D01*
X1598Y1484D02*
X1639Y1484D01*
X1669Y1484D02*
X1710Y1484D01*
X1898Y1484D02*
X1939Y1484D01*
X1969Y1484D02*
X2010Y1484D01*
X1025Y1483D02*
X1041Y1483D01*
X1067Y1483D02*
X1083Y1483D01*
X1225Y1483D02*
X1241Y1483D01*
X1267Y1483D02*
X1283Y1483D01*
X1599Y1483D02*
X1640Y1483D01*
X1668Y1483D02*
X1709Y1483D01*
X1899Y1483D02*
X1940Y1483D01*
X1968Y1483D02*
X2009Y1483D01*
X1025Y1482D02*
X1042Y1482D01*
X1066Y1482D02*
X1083Y1482D01*
X1225Y1482D02*
X1242Y1482D01*
X1266Y1482D02*
X1283Y1482D01*
X1599Y1482D02*
X1642Y1482D01*
X1666Y1482D02*
X1709Y1482D01*
X1899Y1482D02*
X1942Y1482D01*
X1966Y1482D02*
X2009Y1482D01*
X1025Y1481D02*
X1044Y1481D01*
X1064Y1481D02*
X1083Y1481D01*
X1225Y1481D02*
X1244Y1481D01*
X1264Y1481D02*
X1283Y1481D01*
X1600Y1481D02*
X1643Y1481D01*
X1665Y1481D02*
X1708Y1481D01*
X1900Y1481D02*
X1943Y1481D01*
X1965Y1481D02*
X2008Y1481D01*
X1025Y1480D02*
X1046Y1480D01*
X1062Y1480D02*
X1083Y1480D01*
X1225Y1480D02*
X1246Y1480D01*
X1262Y1480D02*
X1283Y1480D01*
X1601Y1480D02*
X1645Y1480D01*
X1663Y1480D02*
X1707Y1480D01*
X1901Y1480D02*
X1945Y1480D01*
X1963Y1480D02*
X2007Y1480D01*
X1025Y1479D02*
X1049Y1479D01*
X1059Y1479D02*
X1083Y1479D01*
X1225Y1479D02*
X1249Y1479D01*
X1259Y1479D02*
X1283Y1479D01*
X1601Y1479D02*
X1648Y1479D01*
X1660Y1479D02*
X1707Y1479D01*
X1901Y1479D02*
X1948Y1479D01*
X1960Y1479D02*
X2007Y1479D01*
X1025Y1478D02*
X1083Y1478D01*
X1225Y1478D02*
X1283Y1478D01*
X1602Y1478D02*
X1706Y1478D01*
X1902Y1478D02*
X2006Y1478D01*
X1025Y1477D02*
X1083Y1477D01*
X1225Y1477D02*
X1283Y1477D01*
X1603Y1477D02*
X1705Y1477D01*
X1903Y1477D02*
X2005Y1477D01*
X1025Y1476D02*
X1083Y1476D01*
X1225Y1476D02*
X1283Y1476D01*
X1604Y1476D02*
X1704Y1476D01*
X1904Y1476D02*
X2004Y1476D01*
X1025Y1475D02*
X1083Y1475D01*
X1225Y1475D02*
X1283Y1475D01*
X1605Y1475D02*
X1703Y1475D01*
X1905Y1475D02*
X2003Y1475D01*
X1025Y1474D02*
X1083Y1474D01*
X1225Y1474D02*
X1283Y1474D01*
X1607Y1474D02*
X1701Y1474D01*
X1907Y1474D02*
X2001Y1474D01*
X1025Y1473D02*
X1083Y1473D01*
X1225Y1473D02*
X1283Y1473D01*
X1608Y1473D02*
X1700Y1473D01*
X1908Y1473D02*
X2000Y1473D01*
X1025Y1472D02*
X1083Y1472D01*
X1225Y1472D02*
X1283Y1472D01*
X1610Y1472D02*
X1698Y1472D01*
X1910Y1472D02*
X1998Y1472D01*
X1025Y1471D02*
X1083Y1471D01*
X1225Y1471D02*
X1283Y1471D01*
X1612Y1471D02*
X1696Y1471D01*
X1912Y1471D02*
X1996Y1471D01*
X1025Y1470D02*
X1083Y1470D01*
X1225Y1470D02*
X1283Y1470D01*
X1614Y1470D02*
X1694Y1470D01*
X1914Y1470D02*
X1994Y1470D01*
X1025Y1469D02*
X1083Y1469D01*
X1225Y1469D02*
X1283Y1469D01*
X1617Y1469D02*
X1691Y1469D01*
X1917Y1469D02*
X1991Y1469D01*
X1624Y1428D02*
X1684Y1428D01*
X1924Y1428D02*
X1984Y1428D01*
X1617Y1427D02*
X1691Y1427D01*
X1917Y1427D02*
X1991Y1427D01*
X1614Y1426D02*
X1694Y1426D01*
X1914Y1426D02*
X1994Y1426D01*
X1611Y1425D02*
X1697Y1425D01*
X1911Y1425D02*
X1997Y1425D01*
X1610Y1424D02*
X1699Y1424D01*
X1910Y1424D02*
X1999Y1424D01*
X1608Y1423D02*
X1700Y1423D01*
X1908Y1423D02*
X2000Y1423D01*
X1607Y1422D02*
X1702Y1422D01*
X1907Y1422D02*
X2002Y1422D01*
X1605Y1421D02*
X1703Y1421D01*
X1905Y1421D02*
X2003Y1421D01*
X1604Y1420D02*
X1704Y1420D01*
X1904Y1420D02*
X2004Y1420D01*
X1603Y1419D02*
X1705Y1419D01*
X1903Y1419D02*
X2005Y1419D01*
X1602Y1418D02*
X1653Y1418D01*
X1655Y1418D02*
X1706Y1418D01*
X1902Y1418D02*
X1953Y1418D01*
X1955Y1418D02*
X2006Y1418D01*
X1601Y1417D02*
X1647Y1417D01*
X1661Y1417D02*
X1707Y1417D01*
X1901Y1417D02*
X1947Y1417D01*
X1961Y1417D02*
X2007Y1417D01*
X1601Y1416D02*
X1645Y1416D01*
X1663Y1416D02*
X1708Y1416D01*
X1901Y1416D02*
X1945Y1416D01*
X1963Y1416D02*
X2008Y1416D01*
X1600Y1415D02*
X1643Y1415D01*
X1665Y1415D02*
X1708Y1415D01*
X1900Y1415D02*
X1943Y1415D01*
X1965Y1415D02*
X2008Y1415D01*
X1599Y1414D02*
X1642Y1414D01*
X1666Y1414D02*
X1709Y1414D01*
X1899Y1414D02*
X1942Y1414D01*
X1966Y1414D02*
X2009Y1414D01*
X1599Y1413D02*
X1640Y1413D01*
X1668Y1413D02*
X1710Y1413D01*
X1899Y1413D02*
X1940Y1413D01*
X1968Y1413D02*
X2009Y1413D01*
X1598Y1412D02*
X1639Y1412D01*
X1669Y1412D02*
X1710Y1412D01*
X1898Y1412D02*
X1939Y1412D01*
X1969Y1412D02*
X2010Y1412D01*
X1598Y1411D02*
X1638Y1411D01*
X1670Y1411D02*
X1711Y1411D01*
X1897Y1411D02*
X1938Y1411D01*
X1970Y1411D02*
X2011Y1411D01*
X1597Y1410D02*
X1638Y1410D01*
X1670Y1410D02*
X1711Y1410D01*
X1897Y1410D02*
X1938Y1410D01*
X1970Y1410D02*
X2011Y1410D01*
X1597Y1409D02*
X1637Y1409D01*
X1671Y1409D02*
X1711Y1409D01*
X1897Y1409D02*
X1937Y1409D01*
X1971Y1409D02*
X2011Y1409D01*
X1596Y1408D02*
X1636Y1408D01*
X1672Y1408D02*
X1712Y1408D01*
X1896Y1408D02*
X1936Y1408D01*
X1972Y1408D02*
X2012Y1408D01*
X1596Y1407D02*
X1636Y1407D01*
X1672Y1407D02*
X1712Y1407D01*
X1896Y1407D02*
X1936Y1407D01*
X1972Y1407D02*
X2012Y1407D01*
X1596Y1406D02*
X1635Y1406D01*
X1673Y1406D02*
X1712Y1406D01*
X1896Y1406D02*
X1935Y1406D01*
X1973Y1406D02*
X2012Y1406D01*
X1595Y1405D02*
X1635Y1405D01*
X1673Y1405D02*
X1713Y1405D01*
X1895Y1405D02*
X1935Y1405D01*
X1973Y1405D02*
X2013Y1405D01*
X1595Y1404D02*
X1635Y1404D01*
X1674Y1404D02*
X1713Y1404D01*
X1895Y1404D02*
X1935Y1404D01*
X1974Y1404D02*
X2013Y1404D01*
X1595Y1403D02*
X1634Y1403D01*
X1674Y1403D02*
X1713Y1403D01*
X1895Y1403D02*
X1934Y1403D01*
X1974Y1403D02*
X2013Y1403D01*
X1595Y1402D02*
X1634Y1402D01*
X1674Y1402D02*
X1713Y1402D01*
X1895Y1402D02*
X1934Y1402D01*
X1974Y1402D02*
X2013Y1402D01*
X1595Y1401D02*
X1634Y1401D01*
X1674Y1401D02*
X1713Y1401D01*
X1895Y1401D02*
X1934Y1401D01*
X1974Y1401D02*
X2013Y1401D01*
X1595Y1400D02*
X1634Y1400D01*
X1674Y1400D02*
X1713Y1400D01*
X1895Y1400D02*
X1934Y1400D01*
X1974Y1400D02*
X2013Y1400D01*
X1595Y1399D02*
X1634Y1399D01*
X1674Y1399D02*
X1713Y1399D01*
X1895Y1399D02*
X1934Y1399D01*
X1974Y1399D02*
X2013Y1399D01*
X1595Y1398D02*
X1634Y1398D01*
X1675Y1398D02*
X1714Y1398D01*
X1895Y1398D02*
X1934Y1398D01*
X1974Y1398D02*
X2014Y1398D01*
X1595Y1397D02*
X1634Y1397D01*
X1674Y1397D02*
X1713Y1397D01*
X1895Y1397D02*
X1934Y1397D01*
X1974Y1397D02*
X2013Y1397D01*
X1595Y1396D02*
X1634Y1396D01*
X1674Y1396D02*
X1713Y1396D01*
X1895Y1396D02*
X1934Y1396D01*
X1974Y1396D02*
X2013Y1396D01*
X1595Y1395D02*
X1634Y1395D01*
X1674Y1395D02*
X1713Y1395D01*
X1895Y1395D02*
X1934Y1395D01*
X1974Y1395D02*
X2013Y1395D01*
X1595Y1394D02*
X1634Y1394D01*
X1674Y1394D02*
X1713Y1394D01*
X1895Y1394D02*
X1934Y1394D01*
X1974Y1394D02*
X2013Y1394D01*
X1595Y1393D02*
X1634Y1393D01*
X1674Y1393D02*
X1713Y1393D01*
X1895Y1393D02*
X1934Y1393D01*
X1974Y1393D02*
X2013Y1393D01*
X1595Y1392D02*
X1635Y1392D01*
X1674Y1392D02*
X1713Y1392D01*
X1895Y1392D02*
X1935Y1392D01*
X1973Y1392D02*
X2013Y1392D01*
X1595Y1391D02*
X1635Y1391D01*
X1673Y1391D02*
X1713Y1391D01*
X1895Y1391D02*
X1935Y1391D01*
X1973Y1391D02*
X2013Y1391D01*
X1596Y1390D02*
X1635Y1390D01*
X1673Y1390D02*
X1712Y1390D01*
X1896Y1390D02*
X1935Y1390D01*
X1973Y1390D02*
X2012Y1390D01*
X1596Y1389D02*
X1636Y1389D01*
X1672Y1389D02*
X1712Y1389D01*
X1896Y1389D02*
X1936Y1389D01*
X1972Y1389D02*
X2012Y1389D01*
X1596Y1388D02*
X1636Y1388D01*
X1672Y1388D02*
X1712Y1388D01*
X1896Y1388D02*
X1936Y1388D01*
X1972Y1388D02*
X2012Y1388D01*
X1597Y1387D02*
X1637Y1387D01*
X1671Y1387D02*
X1711Y1387D01*
X1897Y1387D02*
X1937Y1387D01*
X1971Y1387D02*
X2011Y1387D01*
X1597Y1386D02*
X1638Y1386D01*
X1670Y1386D02*
X1711Y1386D01*
X1897Y1386D02*
X1938Y1386D01*
X1970Y1386D02*
X2011Y1386D01*
X1598Y1385D02*
X1639Y1385D01*
X1670Y1385D02*
X1711Y1385D01*
X1898Y1385D02*
X1938Y1385D01*
X1970Y1385D02*
X2010Y1385D01*
X1598Y1384D02*
X1639Y1384D01*
X1669Y1384D02*
X1710Y1384D01*
X1898Y1384D02*
X1939Y1384D01*
X1969Y1384D02*
X2010Y1384D01*
X1599Y1383D02*
X1640Y1383D01*
X1668Y1383D02*
X1709Y1383D01*
X1899Y1383D02*
X1940Y1383D01*
X1968Y1383D02*
X2009Y1383D01*
X1599Y1382D02*
X1642Y1382D01*
X1666Y1382D02*
X1709Y1382D01*
X1899Y1382D02*
X1942Y1382D01*
X1966Y1382D02*
X2009Y1382D01*
X1600Y1381D02*
X1643Y1381D01*
X1665Y1381D02*
X1708Y1381D01*
X1900Y1381D02*
X1943Y1381D01*
X1965Y1381D02*
X2008Y1381D01*
X1601Y1380D02*
X1645Y1380D01*
X1663Y1380D02*
X1707Y1380D01*
X1901Y1380D02*
X1945Y1380D01*
X1963Y1380D02*
X2007Y1380D01*
X1601Y1379D02*
X1648Y1379D01*
X1660Y1379D02*
X1707Y1379D01*
X1901Y1379D02*
X1948Y1379D01*
X1960Y1379D02*
X2007Y1379D01*
X1602Y1378D02*
X1706Y1378D01*
X1902Y1378D02*
X2006Y1378D01*
X1603Y1377D02*
X1705Y1377D01*
X1903Y1377D02*
X2005Y1377D01*
X1604Y1376D02*
X1704Y1376D01*
X1904Y1376D02*
X2004Y1376D01*
X1605Y1375D02*
X1703Y1375D01*
X1905Y1375D02*
X2003Y1375D01*
X1607Y1374D02*
X1701Y1374D01*
X1907Y1374D02*
X2001Y1374D01*
X1608Y1373D02*
X1700Y1373D01*
X1908Y1373D02*
X2000Y1373D01*
X1610Y1372D02*
X1698Y1372D01*
X1910Y1372D02*
X1998Y1372D01*
X1612Y1371D02*
X1696Y1371D01*
X1912Y1371D02*
X1996Y1371D01*
X1614Y1370D02*
X1694Y1370D01*
X1914Y1370D02*
X1994Y1370D01*
X1617Y1369D02*
X1691Y1369D01*
X1917Y1369D02*
X1991Y1369D01*
D02*
G04 End of Copper1*
M02*