G04 MADE WITH FRITZING*
G04 WWW.FRITZING.ORG*
G04 DOUBLE SIDED*
G04 HOLES PLATED*
G04 CONTOUR ON CENTER OF CONTOUR VECTOR*
%ASAXBY*%
%FSLAX23Y23*%
%MOIN*%
%OFA0B0*%
%SFA1.0B1.0*%
%ADD10C,0.172000*%
%ADD11C,0.069370*%
%ADD12C,0.075278*%
%ADD13C,0.084000*%
%ADD14C,0.092000*%
%ADD15C,0.080866*%
%ADD16C,0.085000*%
%ADD17C,0.070000*%
%ADD18R,0.092000X0.092000*%
%ADD19R,0.085000X0.085000*%
%ADD20R,0.001000X0.001000*%
%LNMASK0*%
G90*
G70*
G54D10*
X1830Y450D03*
X2118Y451D03*
X1955Y598D03*
G54D11*
X1255Y1798D03*
X1255Y1498D03*
X1055Y1798D03*
X1055Y1498D03*
G54D12*
X1655Y98D03*
X1755Y98D03*
X1855Y98D03*
X1955Y98D03*
X2055Y98D03*
X1195Y1998D03*
X1095Y1998D03*
X995Y1998D03*
X895Y1998D03*
X795Y1998D03*
X695Y1998D03*
X595Y1998D03*
X495Y1998D03*
X395Y1998D03*
X295Y1998D03*
X2055Y1998D03*
X1955Y1998D03*
X1855Y1998D03*
X1755Y1998D03*
X1655Y1998D03*
X1555Y1998D03*
X1455Y1998D03*
X1355Y1998D03*
X755Y98D03*
X655Y98D03*
X855Y98D03*
X955Y98D03*
X1055Y98D03*
X1155Y98D03*
X1255Y98D03*
X1355Y98D03*
X1555Y98D03*
G54D13*
X255Y698D03*
X255Y798D03*
X255Y898D03*
X255Y798D03*
X255Y1098D03*
X255Y998D03*
X255Y598D03*
X255Y498D03*
X255Y398D03*
X255Y298D03*
X255Y198D03*
X255Y1098D03*
G54D14*
X1355Y398D03*
X1455Y398D03*
X1555Y398D03*
X1355Y398D03*
X1455Y398D03*
X1555Y398D03*
G54D15*
X555Y598D03*
X655Y598D03*
X755Y598D03*
X855Y598D03*
X555Y598D03*
X655Y598D03*
X755Y598D03*
X855Y598D03*
G54D16*
X1355Y598D03*
X1355Y498D03*
X1355Y598D03*
X1355Y498D03*
X1555Y598D03*
X1555Y498D03*
X1555Y598D03*
X1555Y498D03*
G54D17*
X1655Y1398D03*
X1655Y1498D03*
X1655Y1598D03*
X1655Y1398D03*
X1655Y1498D03*
X1655Y1598D03*
X1655Y1398D03*
X1655Y1498D03*
X1655Y1598D03*
X1955Y1398D03*
X1955Y1498D03*
X1955Y1598D03*
X1955Y1398D03*
X1955Y1498D03*
X1955Y1598D03*
X1955Y1398D03*
X1955Y1498D03*
X1955Y1598D03*
G54D15*
X1655Y1198D03*
X1755Y1198D03*
X1655Y1198D03*
X1755Y1198D03*
X1655Y998D03*
X1755Y998D03*
X1655Y998D03*
X1755Y998D03*
X1955Y998D03*
X2055Y998D03*
X1955Y998D03*
X2055Y998D03*
X1955Y1198D03*
X2055Y1198D03*
X1955Y1198D03*
X2055Y1198D03*
X755Y1798D03*
X755Y1698D03*
X755Y1798D03*
X755Y1698D03*
X355Y1798D03*
X355Y1698D03*
X355Y1798D03*
X355Y1698D03*
G54D16*
X913Y1356D03*
X913Y1756D03*
X913Y1356D03*
X913Y1756D03*
X573Y1357D03*
X573Y1757D03*
X573Y1357D03*
X573Y1757D03*
X1455Y1498D03*
X1455Y1898D03*
X1455Y1498D03*
X1455Y1898D03*
X1655Y1798D03*
X2055Y1798D03*
X1655Y1798D03*
X2055Y1798D03*
X1255Y798D03*
X1255Y1198D03*
X1255Y798D03*
X1255Y1198D03*
G54D18*
X1355Y398D03*
X1355Y398D03*
G54D19*
X1355Y598D03*
X1355Y598D03*
X1555Y598D03*
X1555Y598D03*
G54D20*
X1020Y1832D02*
X1088Y1832D01*
X1220Y1832D02*
X1288Y1832D01*
X1020Y1831D02*
X1088Y1831D01*
X1220Y1831D02*
X1288Y1831D01*
X1020Y1830D02*
X1088Y1830D01*
X1220Y1830D02*
X1288Y1830D01*
X1020Y1829D02*
X1088Y1829D01*
X1220Y1829D02*
X1288Y1829D01*
X1020Y1828D02*
X1088Y1828D01*
X1220Y1828D02*
X1288Y1828D01*
X1020Y1827D02*
X1088Y1827D01*
X1220Y1827D02*
X1288Y1827D01*
X1020Y1826D02*
X1088Y1826D01*
X1220Y1826D02*
X1288Y1826D01*
X1020Y1825D02*
X1088Y1825D01*
X1220Y1825D02*
X1288Y1825D01*
X1020Y1824D02*
X1088Y1824D01*
X1220Y1824D02*
X1288Y1824D01*
X1020Y1823D02*
X1088Y1823D01*
X1220Y1823D02*
X1288Y1823D01*
X1020Y1822D02*
X1088Y1822D01*
X1220Y1822D02*
X1288Y1822D01*
X1020Y1821D02*
X1088Y1821D01*
X1220Y1821D02*
X1288Y1821D01*
X1020Y1820D02*
X1088Y1820D01*
X1220Y1820D02*
X1288Y1820D01*
X1020Y1819D02*
X1088Y1819D01*
X1220Y1819D02*
X1288Y1819D01*
X1020Y1818D02*
X1088Y1818D01*
X1220Y1818D02*
X1288Y1818D01*
X1020Y1817D02*
X1088Y1817D01*
X1220Y1817D02*
X1288Y1817D01*
X1020Y1816D02*
X1088Y1816D01*
X1220Y1816D02*
X1288Y1816D01*
X1020Y1815D02*
X1088Y1815D01*
X1220Y1815D02*
X1288Y1815D01*
X1020Y1814D02*
X1088Y1814D01*
X1220Y1814D02*
X1288Y1814D01*
X1020Y1813D02*
X1088Y1813D01*
X1220Y1813D02*
X1288Y1813D01*
X1020Y1812D02*
X1049Y1812D01*
X1059Y1812D02*
X1088Y1812D01*
X1220Y1812D02*
X1249Y1812D01*
X1259Y1812D02*
X1288Y1812D01*
X1020Y1811D02*
X1047Y1811D01*
X1061Y1811D02*
X1088Y1811D01*
X1220Y1811D02*
X1247Y1811D01*
X1261Y1811D02*
X1288Y1811D01*
X1020Y1810D02*
X1045Y1810D01*
X1063Y1810D02*
X1088Y1810D01*
X1220Y1810D02*
X1245Y1810D01*
X1263Y1810D02*
X1288Y1810D01*
X1020Y1809D02*
X1044Y1809D01*
X1064Y1809D02*
X1088Y1809D01*
X1220Y1809D02*
X1244Y1809D01*
X1264Y1809D02*
X1288Y1809D01*
X1020Y1808D02*
X1043Y1808D01*
X1065Y1808D02*
X1088Y1808D01*
X1220Y1808D02*
X1243Y1808D01*
X1265Y1808D02*
X1288Y1808D01*
X1020Y1807D02*
X1042Y1807D01*
X1066Y1807D02*
X1088Y1807D01*
X1220Y1807D02*
X1242Y1807D01*
X1266Y1807D02*
X1288Y1807D01*
X1020Y1806D02*
X1041Y1806D01*
X1067Y1806D02*
X1088Y1806D01*
X1220Y1806D02*
X1241Y1806D01*
X1267Y1806D02*
X1288Y1806D01*
X1020Y1805D02*
X1041Y1805D01*
X1067Y1805D02*
X1088Y1805D01*
X1220Y1805D02*
X1241Y1805D01*
X1267Y1805D02*
X1288Y1805D01*
X1020Y1804D02*
X1040Y1804D01*
X1068Y1804D02*
X1088Y1804D01*
X1220Y1804D02*
X1240Y1804D01*
X1268Y1804D02*
X1288Y1804D01*
X1020Y1803D02*
X1040Y1803D01*
X1068Y1803D02*
X1088Y1803D01*
X1220Y1803D02*
X1240Y1803D01*
X1268Y1803D02*
X1288Y1803D01*
X1020Y1802D02*
X1039Y1802D01*
X1069Y1802D02*
X1088Y1802D01*
X1220Y1802D02*
X1239Y1802D01*
X1269Y1802D02*
X1288Y1802D01*
X1020Y1801D02*
X1039Y1801D01*
X1069Y1801D02*
X1088Y1801D01*
X1220Y1801D02*
X1239Y1801D01*
X1269Y1801D02*
X1288Y1801D01*
X1020Y1800D02*
X1039Y1800D01*
X1069Y1800D02*
X1088Y1800D01*
X1220Y1800D02*
X1239Y1800D01*
X1269Y1800D02*
X1288Y1800D01*
X1020Y1799D02*
X1039Y1799D01*
X1069Y1799D02*
X1088Y1799D01*
X1220Y1799D02*
X1239Y1799D01*
X1269Y1799D02*
X1288Y1799D01*
X1020Y1798D02*
X1039Y1798D01*
X1069Y1798D02*
X1088Y1798D01*
X1220Y1798D02*
X1239Y1798D01*
X1269Y1798D02*
X1288Y1798D01*
X1020Y1797D02*
X1039Y1797D01*
X1069Y1797D02*
X1088Y1797D01*
X1220Y1797D02*
X1239Y1797D01*
X1269Y1797D02*
X1288Y1797D01*
X1020Y1796D02*
X1039Y1796D01*
X1069Y1796D02*
X1088Y1796D01*
X1220Y1796D02*
X1239Y1796D01*
X1269Y1796D02*
X1288Y1796D01*
X1020Y1795D02*
X1039Y1795D01*
X1069Y1795D02*
X1088Y1795D01*
X1220Y1795D02*
X1239Y1795D01*
X1269Y1795D02*
X1288Y1795D01*
X1020Y1794D02*
X1039Y1794D01*
X1069Y1794D02*
X1088Y1794D01*
X1220Y1794D02*
X1239Y1794D01*
X1269Y1794D02*
X1288Y1794D01*
X1020Y1793D02*
X1040Y1793D01*
X1068Y1793D02*
X1088Y1793D01*
X1220Y1793D02*
X1240Y1793D01*
X1268Y1793D02*
X1288Y1793D01*
X1020Y1792D02*
X1040Y1792D01*
X1068Y1792D02*
X1088Y1792D01*
X1220Y1792D02*
X1240Y1792D01*
X1268Y1792D02*
X1288Y1792D01*
X1020Y1791D02*
X1041Y1791D01*
X1068Y1791D02*
X1088Y1791D01*
X1220Y1791D02*
X1241Y1791D01*
X1268Y1791D02*
X1288Y1791D01*
X1020Y1790D02*
X1041Y1790D01*
X1067Y1790D02*
X1088Y1790D01*
X1220Y1790D02*
X1241Y1790D01*
X1267Y1790D02*
X1288Y1790D01*
X1020Y1789D02*
X1042Y1789D01*
X1066Y1789D02*
X1088Y1789D01*
X1220Y1789D02*
X1242Y1789D01*
X1266Y1789D02*
X1288Y1789D01*
X1020Y1788D02*
X1043Y1788D01*
X1065Y1788D02*
X1088Y1788D01*
X1220Y1788D02*
X1243Y1788D01*
X1265Y1788D02*
X1288Y1788D01*
X1020Y1787D02*
X1044Y1787D01*
X1064Y1787D02*
X1088Y1787D01*
X1220Y1787D02*
X1244Y1787D01*
X1264Y1787D02*
X1288Y1787D01*
X1020Y1786D02*
X1045Y1786D01*
X1063Y1786D02*
X1088Y1786D01*
X1220Y1786D02*
X1245Y1786D01*
X1263Y1786D02*
X1288Y1786D01*
X1020Y1785D02*
X1047Y1785D01*
X1062Y1785D02*
X1088Y1785D01*
X1220Y1785D02*
X1247Y1785D01*
X1262Y1785D02*
X1288Y1785D01*
X1020Y1784D02*
X1049Y1784D01*
X1059Y1784D02*
X1088Y1784D01*
X1220Y1784D02*
X1249Y1784D01*
X1259Y1784D02*
X1288Y1784D01*
X1020Y1783D02*
X1088Y1783D01*
X1220Y1783D02*
X1288Y1783D01*
X1020Y1782D02*
X1088Y1782D01*
X1220Y1782D02*
X1288Y1782D01*
X1020Y1781D02*
X1088Y1781D01*
X1220Y1781D02*
X1288Y1781D01*
X1020Y1780D02*
X1088Y1780D01*
X1220Y1780D02*
X1288Y1780D01*
X1020Y1779D02*
X1088Y1779D01*
X1220Y1779D02*
X1288Y1779D01*
X1020Y1778D02*
X1088Y1778D01*
X1220Y1778D02*
X1288Y1778D01*
X1020Y1777D02*
X1088Y1777D01*
X1220Y1777D02*
X1288Y1777D01*
X1020Y1776D02*
X1088Y1776D01*
X1220Y1776D02*
X1288Y1776D01*
X1020Y1775D02*
X1088Y1775D01*
X1220Y1775D02*
X1288Y1775D01*
X1020Y1774D02*
X1088Y1774D01*
X1220Y1774D02*
X1288Y1774D01*
X1020Y1773D02*
X1088Y1773D01*
X1220Y1773D02*
X1288Y1773D01*
X1020Y1772D02*
X1088Y1772D01*
X1220Y1772D02*
X1288Y1772D01*
X1020Y1771D02*
X1088Y1771D01*
X1220Y1771D02*
X1288Y1771D01*
X1020Y1770D02*
X1088Y1770D01*
X1220Y1770D02*
X1288Y1770D01*
X1020Y1769D02*
X1088Y1769D01*
X1220Y1769D02*
X1288Y1769D01*
X1020Y1768D02*
X1088Y1768D01*
X1220Y1768D02*
X1288Y1768D01*
X1020Y1767D02*
X1088Y1767D01*
X1220Y1767D02*
X1288Y1767D01*
X1020Y1766D02*
X1088Y1766D01*
X1220Y1766D02*
X1288Y1766D01*
X1020Y1765D02*
X1088Y1765D01*
X1220Y1765D02*
X1288Y1765D01*
X1020Y1764D02*
X1088Y1764D01*
X1220Y1764D02*
X1288Y1764D01*
X1617Y1632D02*
X1691Y1632D01*
X1917Y1632D02*
X1991Y1632D01*
X1613Y1631D02*
X1695Y1631D01*
X1913Y1631D02*
X1995Y1631D01*
X1611Y1630D02*
X1697Y1630D01*
X1911Y1630D02*
X1997Y1630D01*
X1609Y1629D02*
X1700Y1629D01*
X1909Y1629D02*
X2000Y1629D01*
X1607Y1628D02*
X1701Y1628D01*
X1907Y1628D02*
X2001Y1628D01*
X1605Y1627D02*
X1703Y1627D01*
X1905Y1627D02*
X2003Y1627D01*
X1604Y1626D02*
X1704Y1626D01*
X1904Y1626D02*
X2004Y1626D01*
X1602Y1625D02*
X1706Y1625D01*
X1902Y1625D02*
X2006Y1625D01*
X1601Y1624D02*
X1707Y1624D01*
X1901Y1624D02*
X2007Y1624D01*
X1600Y1623D02*
X1708Y1623D01*
X1900Y1623D02*
X2008Y1623D01*
X1599Y1622D02*
X1709Y1622D01*
X1899Y1622D02*
X2009Y1622D01*
X1598Y1621D02*
X1710Y1621D01*
X1898Y1621D02*
X2010Y1621D01*
X1597Y1620D02*
X1711Y1620D01*
X1897Y1620D02*
X2011Y1620D01*
X1597Y1619D02*
X1711Y1619D01*
X1897Y1619D02*
X2011Y1619D01*
X1596Y1618D02*
X1712Y1618D01*
X1896Y1618D02*
X2012Y1618D01*
X1595Y1617D02*
X1713Y1617D01*
X1895Y1617D02*
X2013Y1617D01*
X1595Y1616D02*
X1713Y1616D01*
X1895Y1616D02*
X2013Y1616D01*
X1594Y1615D02*
X1714Y1615D01*
X1894Y1615D02*
X2014Y1615D01*
X1594Y1614D02*
X1715Y1614D01*
X1894Y1614D02*
X2015Y1614D01*
X1593Y1613D02*
X1715Y1613D01*
X1893Y1613D02*
X2015Y1613D01*
X1593Y1612D02*
X1648Y1612D01*
X1660Y1612D02*
X1716Y1612D01*
X1893Y1612D02*
X1948Y1612D01*
X1960Y1612D02*
X2015Y1612D01*
X1592Y1611D02*
X1646Y1611D01*
X1662Y1611D02*
X1716Y1611D01*
X1892Y1611D02*
X1946Y1611D01*
X1962Y1611D02*
X2016Y1611D01*
X1592Y1610D02*
X1645Y1610D01*
X1664Y1610D02*
X1716Y1610D01*
X1892Y1610D02*
X1945Y1610D01*
X1963Y1610D02*
X2016Y1610D01*
X1591Y1609D02*
X1643Y1609D01*
X1665Y1609D02*
X1717Y1609D01*
X1891Y1609D02*
X1943Y1609D01*
X1965Y1609D02*
X2017Y1609D01*
X1591Y1608D02*
X1642Y1608D01*
X1666Y1608D02*
X1717Y1608D01*
X1891Y1608D02*
X1942Y1608D01*
X1966Y1608D02*
X2017Y1608D01*
X1591Y1607D02*
X1642Y1607D01*
X1667Y1607D02*
X1717Y1607D01*
X1891Y1607D02*
X1942Y1607D01*
X1966Y1607D02*
X2017Y1607D01*
X1591Y1606D02*
X1641Y1606D01*
X1667Y1606D02*
X1718Y1606D01*
X1891Y1606D02*
X1941Y1606D01*
X1967Y1606D02*
X2017Y1606D01*
X1590Y1605D02*
X1640Y1605D01*
X1668Y1605D02*
X1718Y1605D01*
X1890Y1605D02*
X1940Y1605D01*
X1968Y1605D02*
X2018Y1605D01*
X1590Y1604D02*
X1640Y1604D01*
X1668Y1604D02*
X1718Y1604D01*
X1890Y1604D02*
X1940Y1604D01*
X1968Y1604D02*
X2018Y1604D01*
X1590Y1603D02*
X1639Y1603D01*
X1669Y1603D02*
X1718Y1603D01*
X1890Y1603D02*
X1939Y1603D01*
X1969Y1603D02*
X2018Y1603D01*
X1590Y1602D02*
X1639Y1602D01*
X1669Y1602D02*
X1718Y1602D01*
X1890Y1602D02*
X1939Y1602D01*
X1969Y1602D02*
X2018Y1602D01*
X1590Y1601D02*
X1639Y1601D01*
X1669Y1601D02*
X1718Y1601D01*
X1890Y1601D02*
X1939Y1601D01*
X1969Y1601D02*
X2018Y1601D01*
X1590Y1600D02*
X1639Y1600D01*
X1669Y1600D02*
X1718Y1600D01*
X1890Y1600D02*
X1939Y1600D01*
X1969Y1600D02*
X2018Y1600D01*
X1590Y1599D02*
X1639Y1599D01*
X1669Y1599D02*
X1718Y1599D01*
X1890Y1599D02*
X1939Y1599D01*
X1969Y1599D02*
X2018Y1599D01*
X1590Y1598D02*
X1639Y1598D01*
X1670Y1598D02*
X1719Y1598D01*
X1890Y1598D02*
X1939Y1598D01*
X1969Y1598D02*
X2019Y1598D01*
X1590Y1597D02*
X1639Y1597D01*
X1669Y1597D02*
X1718Y1597D01*
X1890Y1597D02*
X1939Y1597D01*
X1969Y1597D02*
X2018Y1597D01*
X1590Y1596D02*
X1639Y1596D01*
X1669Y1596D02*
X1718Y1596D01*
X1890Y1596D02*
X1939Y1596D01*
X1969Y1596D02*
X2018Y1596D01*
X1590Y1595D02*
X1639Y1595D01*
X1669Y1595D02*
X1718Y1595D01*
X1890Y1595D02*
X1939Y1595D01*
X1969Y1595D02*
X2018Y1595D01*
X1590Y1594D02*
X1639Y1594D01*
X1669Y1594D02*
X1718Y1594D01*
X1890Y1594D02*
X1939Y1594D01*
X1969Y1594D02*
X2018Y1594D01*
X1590Y1593D02*
X1639Y1593D01*
X1669Y1593D02*
X1718Y1593D01*
X1890Y1593D02*
X1939Y1593D01*
X1969Y1593D02*
X2018Y1593D01*
X1590Y1592D02*
X1640Y1592D01*
X1668Y1592D02*
X1718Y1592D01*
X1890Y1592D02*
X1940Y1592D01*
X1968Y1592D02*
X2018Y1592D01*
X1590Y1591D02*
X1640Y1591D01*
X1668Y1591D02*
X1718Y1591D01*
X1890Y1591D02*
X1940Y1591D01*
X1968Y1591D02*
X2018Y1591D01*
X1591Y1590D02*
X1641Y1590D01*
X1667Y1590D02*
X1718Y1590D01*
X1891Y1590D02*
X1941Y1590D01*
X1967Y1590D02*
X2017Y1590D01*
X1591Y1589D02*
X1642Y1589D01*
X1667Y1589D02*
X1717Y1589D01*
X1891Y1589D02*
X1942Y1589D01*
X1966Y1589D02*
X2017Y1589D01*
X1591Y1588D02*
X1642Y1588D01*
X1666Y1588D02*
X1717Y1588D01*
X1891Y1588D02*
X1942Y1588D01*
X1966Y1588D02*
X2017Y1588D01*
X1591Y1587D02*
X1643Y1587D01*
X1665Y1587D02*
X1717Y1587D01*
X1891Y1587D02*
X1943Y1587D01*
X1965Y1587D02*
X2017Y1587D01*
X1592Y1586D02*
X1645Y1586D01*
X1664Y1586D02*
X1716Y1586D01*
X1892Y1586D02*
X1945Y1586D01*
X1963Y1586D02*
X2016Y1586D01*
X1592Y1585D02*
X1646Y1585D01*
X1662Y1585D02*
X1716Y1585D01*
X1892Y1585D02*
X1946Y1585D01*
X1962Y1585D02*
X2016Y1585D01*
X1593Y1584D02*
X1648Y1584D01*
X1660Y1584D02*
X1716Y1584D01*
X1893Y1584D02*
X1948Y1584D01*
X1960Y1584D02*
X2015Y1584D01*
X1593Y1583D02*
X1715Y1583D01*
X1893Y1583D02*
X2015Y1583D01*
X1594Y1582D02*
X1715Y1582D01*
X1894Y1582D02*
X2015Y1582D01*
X1594Y1581D02*
X1714Y1581D01*
X1894Y1581D02*
X2014Y1581D01*
X1595Y1580D02*
X1713Y1580D01*
X1895Y1580D02*
X2013Y1580D01*
X1595Y1579D02*
X1713Y1579D01*
X1895Y1579D02*
X2013Y1579D01*
X1596Y1578D02*
X1712Y1578D01*
X1896Y1578D02*
X2012Y1578D01*
X1597Y1577D02*
X1711Y1577D01*
X1897Y1577D02*
X2011Y1577D01*
X1597Y1576D02*
X1711Y1576D01*
X1897Y1576D02*
X2011Y1576D01*
X1598Y1575D02*
X1710Y1575D01*
X1898Y1575D02*
X2010Y1575D01*
X1599Y1574D02*
X1709Y1574D01*
X1899Y1574D02*
X2009Y1574D01*
X1600Y1573D02*
X1708Y1573D01*
X1900Y1573D02*
X2008Y1573D01*
X1601Y1572D02*
X1707Y1572D01*
X1901Y1572D02*
X2007Y1572D01*
X1602Y1571D02*
X1706Y1571D01*
X1902Y1571D02*
X2006Y1571D01*
X1604Y1570D02*
X1704Y1570D01*
X1904Y1570D02*
X2004Y1570D01*
X1605Y1569D02*
X1703Y1569D01*
X1905Y1569D02*
X2003Y1569D01*
X1607Y1568D02*
X1701Y1568D01*
X1907Y1568D02*
X2001Y1568D01*
X1609Y1567D02*
X1700Y1567D01*
X1909Y1567D02*
X2000Y1567D01*
X1611Y1566D02*
X1697Y1566D01*
X1911Y1566D02*
X1997Y1566D01*
X1613Y1565D02*
X1695Y1565D01*
X1913Y1565D02*
X1995Y1565D01*
X1617Y1564D02*
X1691Y1564D01*
X1917Y1564D02*
X1991Y1564D01*
X1625Y1563D02*
X1683Y1563D01*
X1925Y1563D02*
X1983Y1563D01*
X1624Y1533D02*
X1684Y1533D01*
X1924Y1533D02*
X1984Y1533D01*
X1020Y1532D02*
X1088Y1532D01*
X1220Y1532D02*
X1288Y1532D01*
X1617Y1532D02*
X1692Y1532D01*
X1917Y1532D02*
X1991Y1532D01*
X1020Y1531D02*
X1088Y1531D01*
X1220Y1531D02*
X1288Y1531D01*
X1613Y1531D02*
X1695Y1531D01*
X1913Y1531D02*
X1995Y1531D01*
X1020Y1530D02*
X1088Y1530D01*
X1220Y1530D02*
X1288Y1530D01*
X1611Y1530D02*
X1697Y1530D01*
X1911Y1530D02*
X1997Y1530D01*
X1020Y1529D02*
X1088Y1529D01*
X1220Y1529D02*
X1288Y1529D01*
X1609Y1529D02*
X1700Y1529D01*
X1908Y1529D02*
X2000Y1529D01*
X1020Y1528D02*
X1088Y1528D01*
X1220Y1528D02*
X1288Y1528D01*
X1607Y1528D02*
X1701Y1528D01*
X1907Y1528D02*
X2001Y1528D01*
X1020Y1527D02*
X1088Y1527D01*
X1220Y1527D02*
X1288Y1527D01*
X1605Y1527D02*
X1703Y1527D01*
X1905Y1527D02*
X2003Y1527D01*
X1020Y1526D02*
X1088Y1526D01*
X1220Y1526D02*
X1288Y1526D01*
X1604Y1526D02*
X1704Y1526D01*
X1904Y1526D02*
X2004Y1526D01*
X1020Y1525D02*
X1088Y1525D01*
X1220Y1525D02*
X1288Y1525D01*
X1602Y1525D02*
X1706Y1525D01*
X1902Y1525D02*
X2006Y1525D01*
X1020Y1524D02*
X1088Y1524D01*
X1220Y1524D02*
X1288Y1524D01*
X1601Y1524D02*
X1707Y1524D01*
X1901Y1524D02*
X2007Y1524D01*
X1020Y1523D02*
X1088Y1523D01*
X1220Y1523D02*
X1288Y1523D01*
X1600Y1523D02*
X1708Y1523D01*
X1900Y1523D02*
X2008Y1523D01*
X1020Y1522D02*
X1088Y1522D01*
X1220Y1522D02*
X1288Y1522D01*
X1599Y1522D02*
X1709Y1522D01*
X1899Y1522D02*
X2009Y1522D01*
X1020Y1521D02*
X1088Y1521D01*
X1220Y1521D02*
X1288Y1521D01*
X1598Y1521D02*
X1710Y1521D01*
X1898Y1521D02*
X2010Y1521D01*
X1020Y1520D02*
X1088Y1520D01*
X1220Y1520D02*
X1288Y1520D01*
X1597Y1520D02*
X1711Y1520D01*
X1897Y1520D02*
X2011Y1520D01*
X1020Y1519D02*
X1088Y1519D01*
X1220Y1519D02*
X1288Y1519D01*
X1597Y1519D02*
X1711Y1519D01*
X1897Y1519D02*
X2011Y1519D01*
X1020Y1518D02*
X1088Y1518D01*
X1220Y1518D02*
X1288Y1518D01*
X1596Y1518D02*
X1712Y1518D01*
X1896Y1518D02*
X2012Y1518D01*
X1020Y1517D02*
X1088Y1517D01*
X1220Y1517D02*
X1288Y1517D01*
X1595Y1517D02*
X1713Y1517D01*
X1895Y1517D02*
X2013Y1517D01*
X1020Y1516D02*
X1088Y1516D01*
X1220Y1516D02*
X1288Y1516D01*
X1595Y1516D02*
X1713Y1516D01*
X1895Y1516D02*
X2013Y1516D01*
X1020Y1515D02*
X1088Y1515D01*
X1220Y1515D02*
X1288Y1515D01*
X1594Y1515D02*
X1714Y1515D01*
X1894Y1515D02*
X2014Y1515D01*
X1020Y1514D02*
X1088Y1514D01*
X1220Y1514D02*
X1288Y1514D01*
X1594Y1514D02*
X1715Y1514D01*
X1894Y1514D02*
X2015Y1514D01*
X1020Y1513D02*
X1088Y1513D01*
X1220Y1513D02*
X1288Y1513D01*
X1593Y1513D02*
X1715Y1513D01*
X1893Y1513D02*
X2015Y1513D01*
X1020Y1512D02*
X1049Y1512D01*
X1059Y1512D02*
X1088Y1512D01*
X1220Y1512D02*
X1249Y1512D01*
X1259Y1512D02*
X1288Y1512D01*
X1593Y1512D02*
X1648Y1512D01*
X1660Y1512D02*
X1716Y1512D01*
X1893Y1512D02*
X1948Y1512D01*
X1960Y1512D02*
X2015Y1512D01*
X1020Y1511D02*
X1047Y1511D01*
X1061Y1511D02*
X1088Y1511D01*
X1220Y1511D02*
X1247Y1511D01*
X1261Y1511D02*
X1288Y1511D01*
X1592Y1511D02*
X1646Y1511D01*
X1662Y1511D02*
X1716Y1511D01*
X1892Y1511D02*
X1946Y1511D01*
X1962Y1511D02*
X2016Y1511D01*
X1020Y1510D02*
X1045Y1510D01*
X1063Y1510D02*
X1088Y1510D01*
X1220Y1510D02*
X1245Y1510D01*
X1263Y1510D02*
X1288Y1510D01*
X1592Y1510D02*
X1645Y1510D01*
X1664Y1510D02*
X1716Y1510D01*
X1892Y1510D02*
X1945Y1510D01*
X1964Y1510D02*
X2016Y1510D01*
X1020Y1509D02*
X1044Y1509D01*
X1064Y1509D02*
X1088Y1509D01*
X1220Y1509D02*
X1244Y1509D01*
X1264Y1509D02*
X1288Y1509D01*
X1591Y1509D02*
X1643Y1509D01*
X1665Y1509D02*
X1717Y1509D01*
X1891Y1509D02*
X1943Y1509D01*
X1965Y1509D02*
X2017Y1509D01*
X1020Y1508D02*
X1043Y1508D01*
X1065Y1508D02*
X1088Y1508D01*
X1220Y1508D02*
X1243Y1508D01*
X1265Y1508D02*
X1288Y1508D01*
X1591Y1508D02*
X1642Y1508D01*
X1666Y1508D02*
X1717Y1508D01*
X1891Y1508D02*
X1942Y1508D01*
X1966Y1508D02*
X2017Y1508D01*
X1020Y1507D02*
X1042Y1507D01*
X1066Y1507D02*
X1088Y1507D01*
X1220Y1507D02*
X1242Y1507D01*
X1266Y1507D02*
X1288Y1507D01*
X1591Y1507D02*
X1642Y1507D01*
X1667Y1507D02*
X1717Y1507D01*
X1891Y1507D02*
X1942Y1507D01*
X1967Y1507D02*
X2017Y1507D01*
X1020Y1506D02*
X1041Y1506D01*
X1067Y1506D02*
X1088Y1506D01*
X1220Y1506D02*
X1241Y1506D01*
X1267Y1506D02*
X1288Y1506D01*
X1591Y1506D02*
X1641Y1506D01*
X1667Y1506D02*
X1718Y1506D01*
X1891Y1506D02*
X1941Y1506D01*
X1967Y1506D02*
X2017Y1506D01*
X1020Y1505D02*
X1041Y1505D01*
X1068Y1505D02*
X1088Y1505D01*
X1220Y1505D02*
X1241Y1505D01*
X1268Y1505D02*
X1288Y1505D01*
X1590Y1505D02*
X1640Y1505D01*
X1668Y1505D02*
X1718Y1505D01*
X1890Y1505D02*
X1940Y1505D01*
X1968Y1505D02*
X2018Y1505D01*
X1020Y1504D02*
X1040Y1504D01*
X1068Y1504D02*
X1088Y1504D01*
X1220Y1504D02*
X1240Y1504D01*
X1268Y1504D02*
X1288Y1504D01*
X1590Y1504D02*
X1640Y1504D01*
X1668Y1504D02*
X1718Y1504D01*
X1890Y1504D02*
X1940Y1504D01*
X1968Y1504D02*
X2018Y1504D01*
X1020Y1503D02*
X1040Y1503D01*
X1068Y1503D02*
X1088Y1503D01*
X1220Y1503D02*
X1240Y1503D01*
X1268Y1503D02*
X1288Y1503D01*
X1590Y1503D02*
X1639Y1503D01*
X1669Y1503D02*
X1718Y1503D01*
X1890Y1503D02*
X1939Y1503D01*
X1969Y1503D02*
X2018Y1503D01*
X1020Y1502D02*
X1039Y1502D01*
X1069Y1502D02*
X1088Y1502D01*
X1220Y1502D02*
X1239Y1502D01*
X1269Y1502D02*
X1288Y1502D01*
X1590Y1502D02*
X1639Y1502D01*
X1669Y1502D02*
X1718Y1502D01*
X1890Y1502D02*
X1939Y1502D01*
X1969Y1502D02*
X2018Y1502D01*
X1020Y1501D02*
X1039Y1501D01*
X1069Y1501D02*
X1088Y1501D01*
X1220Y1501D02*
X1239Y1501D01*
X1269Y1501D02*
X1288Y1501D01*
X1590Y1501D02*
X1639Y1501D01*
X1669Y1501D02*
X1718Y1501D01*
X1890Y1501D02*
X1939Y1501D01*
X1969Y1501D02*
X2018Y1501D01*
X1020Y1500D02*
X1039Y1500D01*
X1069Y1500D02*
X1088Y1500D01*
X1220Y1500D02*
X1239Y1500D01*
X1269Y1500D02*
X1288Y1500D01*
X1590Y1500D02*
X1639Y1500D01*
X1669Y1500D02*
X1718Y1500D01*
X1890Y1500D02*
X1939Y1500D01*
X1969Y1500D02*
X2018Y1500D01*
X1020Y1499D02*
X1039Y1499D01*
X1069Y1499D02*
X1088Y1499D01*
X1220Y1499D02*
X1239Y1499D01*
X1269Y1499D02*
X1288Y1499D01*
X1590Y1499D02*
X1639Y1499D01*
X1669Y1499D02*
X1718Y1499D01*
X1890Y1499D02*
X1939Y1499D01*
X1969Y1499D02*
X2018Y1499D01*
X1020Y1498D02*
X1039Y1498D01*
X1069Y1498D02*
X1088Y1498D01*
X1220Y1498D02*
X1239Y1498D01*
X1269Y1498D02*
X1288Y1498D01*
X1590Y1498D02*
X1639Y1498D01*
X1670Y1498D02*
X1719Y1498D01*
X1890Y1498D02*
X1939Y1498D01*
X1969Y1498D02*
X2019Y1498D01*
X1020Y1497D02*
X1039Y1497D01*
X1069Y1497D02*
X1088Y1497D01*
X1220Y1497D02*
X1239Y1497D01*
X1269Y1497D02*
X1288Y1497D01*
X1590Y1497D02*
X1639Y1497D01*
X1669Y1497D02*
X1718Y1497D01*
X1890Y1497D02*
X1939Y1497D01*
X1969Y1497D02*
X2018Y1497D01*
X1020Y1496D02*
X1039Y1496D01*
X1069Y1496D02*
X1088Y1496D01*
X1220Y1496D02*
X1239Y1496D01*
X1269Y1496D02*
X1288Y1496D01*
X1590Y1496D02*
X1639Y1496D01*
X1669Y1496D02*
X1718Y1496D01*
X1890Y1496D02*
X1939Y1496D01*
X1969Y1496D02*
X2018Y1496D01*
X1020Y1495D02*
X1039Y1495D01*
X1069Y1495D02*
X1088Y1495D01*
X1220Y1495D02*
X1239Y1495D01*
X1269Y1495D02*
X1288Y1495D01*
X1590Y1495D02*
X1639Y1495D01*
X1669Y1495D02*
X1718Y1495D01*
X1890Y1495D02*
X1939Y1495D01*
X1969Y1495D02*
X2018Y1495D01*
X1020Y1494D02*
X1039Y1494D01*
X1069Y1494D02*
X1088Y1494D01*
X1220Y1494D02*
X1239Y1494D01*
X1269Y1494D02*
X1288Y1494D01*
X1590Y1494D02*
X1639Y1494D01*
X1669Y1494D02*
X1718Y1494D01*
X1890Y1494D02*
X1939Y1494D01*
X1969Y1494D02*
X2018Y1494D01*
X1020Y1493D02*
X1040Y1493D01*
X1068Y1493D02*
X1088Y1493D01*
X1220Y1493D02*
X1240Y1493D01*
X1268Y1493D02*
X1288Y1493D01*
X1590Y1493D02*
X1639Y1493D01*
X1669Y1493D02*
X1718Y1493D01*
X1890Y1493D02*
X1939Y1493D01*
X1969Y1493D02*
X2018Y1493D01*
X1020Y1492D02*
X1040Y1492D01*
X1068Y1492D02*
X1088Y1492D01*
X1220Y1492D02*
X1240Y1492D01*
X1268Y1492D02*
X1288Y1492D01*
X1590Y1492D02*
X1640Y1492D01*
X1668Y1492D02*
X1718Y1492D01*
X1890Y1492D02*
X1940Y1492D01*
X1968Y1492D02*
X2018Y1492D01*
X1020Y1491D02*
X1041Y1491D01*
X1068Y1491D02*
X1088Y1491D01*
X1220Y1491D02*
X1241Y1491D01*
X1267Y1491D02*
X1288Y1491D01*
X1590Y1491D02*
X1640Y1491D01*
X1668Y1491D02*
X1718Y1491D01*
X1890Y1491D02*
X1940Y1491D01*
X1968Y1491D02*
X2018Y1491D01*
X1020Y1490D02*
X1041Y1490D01*
X1067Y1490D02*
X1088Y1490D01*
X1220Y1490D02*
X1241Y1490D01*
X1267Y1490D02*
X1288Y1490D01*
X1591Y1490D02*
X1641Y1490D01*
X1667Y1490D02*
X1718Y1490D01*
X1891Y1490D02*
X1941Y1490D01*
X1967Y1490D02*
X2017Y1490D01*
X1020Y1489D02*
X1042Y1489D01*
X1066Y1489D02*
X1088Y1489D01*
X1220Y1489D02*
X1242Y1489D01*
X1266Y1489D02*
X1288Y1489D01*
X1591Y1489D02*
X1642Y1489D01*
X1666Y1489D02*
X1717Y1489D01*
X1891Y1489D02*
X1942Y1489D01*
X1966Y1489D02*
X2017Y1489D01*
X1020Y1488D02*
X1043Y1488D01*
X1065Y1488D02*
X1088Y1488D01*
X1220Y1488D02*
X1243Y1488D01*
X1265Y1488D02*
X1288Y1488D01*
X1591Y1488D02*
X1642Y1488D01*
X1666Y1488D02*
X1717Y1488D01*
X1891Y1488D02*
X1942Y1488D01*
X1966Y1488D02*
X2017Y1488D01*
X1020Y1487D02*
X1044Y1487D01*
X1064Y1487D02*
X1088Y1487D01*
X1220Y1487D02*
X1244Y1487D01*
X1264Y1487D02*
X1288Y1487D01*
X1591Y1487D02*
X1643Y1487D01*
X1665Y1487D02*
X1717Y1487D01*
X1891Y1487D02*
X1943Y1487D01*
X1965Y1487D02*
X2017Y1487D01*
X1020Y1486D02*
X1045Y1486D01*
X1063Y1486D02*
X1088Y1486D01*
X1220Y1486D02*
X1245Y1486D01*
X1263Y1486D02*
X1288Y1486D01*
X1592Y1486D02*
X1645Y1486D01*
X1663Y1486D02*
X1716Y1486D01*
X1892Y1486D02*
X1945Y1486D01*
X1963Y1486D02*
X2016Y1486D01*
X1020Y1485D02*
X1047Y1485D01*
X1061Y1485D02*
X1088Y1485D01*
X1220Y1485D02*
X1247Y1485D01*
X1261Y1485D02*
X1288Y1485D01*
X1592Y1485D02*
X1646Y1485D01*
X1662Y1485D02*
X1716Y1485D01*
X1892Y1485D02*
X1946Y1485D01*
X1962Y1485D02*
X2016Y1485D01*
X1020Y1484D02*
X1049Y1484D01*
X1059Y1484D02*
X1088Y1484D01*
X1220Y1484D02*
X1249Y1484D01*
X1259Y1484D02*
X1288Y1484D01*
X1593Y1484D02*
X1648Y1484D01*
X1660Y1484D02*
X1715Y1484D01*
X1893Y1484D02*
X1948Y1484D01*
X1960Y1484D02*
X2015Y1484D01*
X1020Y1483D02*
X1088Y1483D01*
X1220Y1483D02*
X1288Y1483D01*
X1593Y1483D02*
X1715Y1483D01*
X1893Y1483D02*
X2015Y1483D01*
X1020Y1482D02*
X1088Y1482D01*
X1220Y1482D02*
X1288Y1482D01*
X1594Y1482D02*
X1715Y1482D01*
X1894Y1482D02*
X2015Y1482D01*
X1020Y1481D02*
X1088Y1481D01*
X1220Y1481D02*
X1288Y1481D01*
X1594Y1481D02*
X1714Y1481D01*
X1894Y1481D02*
X2014Y1481D01*
X1020Y1480D02*
X1088Y1480D01*
X1220Y1480D02*
X1288Y1480D01*
X1595Y1480D02*
X1713Y1480D01*
X1895Y1480D02*
X2013Y1480D01*
X1020Y1479D02*
X1088Y1479D01*
X1220Y1479D02*
X1288Y1479D01*
X1595Y1479D02*
X1713Y1479D01*
X1895Y1479D02*
X2013Y1479D01*
X1020Y1478D02*
X1088Y1478D01*
X1220Y1478D02*
X1288Y1478D01*
X1596Y1478D02*
X1712Y1478D01*
X1896Y1478D02*
X2012Y1478D01*
X1020Y1477D02*
X1088Y1477D01*
X1220Y1477D02*
X1288Y1477D01*
X1597Y1477D02*
X1711Y1477D01*
X1897Y1477D02*
X2011Y1477D01*
X1020Y1476D02*
X1088Y1476D01*
X1220Y1476D02*
X1288Y1476D01*
X1597Y1476D02*
X1711Y1476D01*
X1897Y1476D02*
X2011Y1476D01*
X1020Y1475D02*
X1088Y1475D01*
X1220Y1475D02*
X1288Y1475D01*
X1598Y1475D02*
X1710Y1475D01*
X1898Y1475D02*
X2010Y1475D01*
X1020Y1474D02*
X1088Y1474D01*
X1220Y1474D02*
X1288Y1474D01*
X1599Y1474D02*
X1709Y1474D01*
X1899Y1474D02*
X2009Y1474D01*
X1020Y1473D02*
X1088Y1473D01*
X1220Y1473D02*
X1288Y1473D01*
X1600Y1473D02*
X1708Y1473D01*
X1900Y1473D02*
X2008Y1473D01*
X1020Y1472D02*
X1088Y1472D01*
X1220Y1472D02*
X1288Y1472D01*
X1601Y1472D02*
X1707Y1472D01*
X1901Y1472D02*
X2007Y1472D01*
X1020Y1471D02*
X1088Y1471D01*
X1220Y1471D02*
X1288Y1471D01*
X1602Y1471D02*
X1706Y1471D01*
X1902Y1471D02*
X2006Y1471D01*
X1020Y1470D02*
X1088Y1470D01*
X1220Y1470D02*
X1288Y1470D01*
X1604Y1470D02*
X1704Y1470D01*
X1904Y1470D02*
X2004Y1470D01*
X1020Y1469D02*
X1088Y1469D01*
X1220Y1469D02*
X1288Y1469D01*
X1605Y1469D02*
X1703Y1469D01*
X1905Y1469D02*
X2003Y1469D01*
X1020Y1468D02*
X1088Y1468D01*
X1220Y1468D02*
X1288Y1468D01*
X1607Y1468D02*
X1701Y1468D01*
X1907Y1468D02*
X2001Y1468D01*
X1020Y1467D02*
X1088Y1467D01*
X1220Y1467D02*
X1288Y1467D01*
X1609Y1467D02*
X1699Y1467D01*
X1909Y1467D02*
X1999Y1467D01*
X1020Y1466D02*
X1088Y1466D01*
X1220Y1466D02*
X1288Y1466D01*
X1611Y1466D02*
X1697Y1466D01*
X1911Y1466D02*
X1997Y1466D01*
X1020Y1465D02*
X1088Y1465D01*
X1220Y1465D02*
X1288Y1465D01*
X1613Y1465D02*
X1695Y1465D01*
X1913Y1465D02*
X1995Y1465D01*
X1020Y1464D02*
X1088Y1464D01*
X1220Y1464D02*
X1288Y1464D01*
X1617Y1464D02*
X1691Y1464D01*
X1917Y1464D02*
X1991Y1464D01*
X1624Y1433D02*
X1684Y1433D01*
X1924Y1433D02*
X1984Y1433D01*
X1617Y1432D02*
X1692Y1432D01*
X1916Y1432D02*
X1992Y1432D01*
X1613Y1431D02*
X1695Y1431D01*
X1913Y1431D02*
X1995Y1431D01*
X1611Y1430D02*
X1698Y1430D01*
X1911Y1430D02*
X1998Y1430D01*
X1608Y1429D02*
X1700Y1429D01*
X1908Y1429D02*
X2000Y1429D01*
X1607Y1428D02*
X1701Y1428D01*
X1907Y1428D02*
X2001Y1428D01*
X1605Y1427D02*
X1703Y1427D01*
X1905Y1427D02*
X2003Y1427D01*
X1604Y1426D02*
X1704Y1426D01*
X1904Y1426D02*
X2004Y1426D01*
X1602Y1425D02*
X1706Y1425D01*
X1902Y1425D02*
X2006Y1425D01*
X1601Y1424D02*
X1707Y1424D01*
X1901Y1424D02*
X2007Y1424D01*
X1600Y1423D02*
X1708Y1423D01*
X1900Y1423D02*
X2008Y1423D01*
X1599Y1422D02*
X1709Y1422D01*
X1899Y1422D02*
X2009Y1422D01*
X1598Y1421D02*
X1710Y1421D01*
X1898Y1421D02*
X2010Y1421D01*
X1597Y1420D02*
X1711Y1420D01*
X1897Y1420D02*
X2011Y1420D01*
X1597Y1419D02*
X1711Y1419D01*
X1897Y1419D02*
X2011Y1419D01*
X1596Y1418D02*
X1712Y1418D01*
X1896Y1418D02*
X2012Y1418D01*
X1595Y1417D02*
X1713Y1417D01*
X1895Y1417D02*
X2013Y1417D01*
X1595Y1416D02*
X1713Y1416D01*
X1895Y1416D02*
X2013Y1416D01*
X1594Y1415D02*
X1714Y1415D01*
X1894Y1415D02*
X2014Y1415D01*
X1594Y1414D02*
X1715Y1414D01*
X1893Y1414D02*
X2015Y1414D01*
X1593Y1413D02*
X1653Y1413D01*
X1655Y1413D02*
X1715Y1413D01*
X1893Y1413D02*
X1953Y1413D01*
X1955Y1413D02*
X2015Y1413D01*
X1593Y1412D02*
X1648Y1412D01*
X1660Y1412D02*
X1716Y1412D01*
X1893Y1412D02*
X1948Y1412D01*
X1960Y1412D02*
X2015Y1412D01*
X1592Y1411D02*
X1646Y1411D01*
X1662Y1411D02*
X1716Y1411D01*
X1892Y1411D02*
X1946Y1411D01*
X1962Y1411D02*
X2016Y1411D01*
X1592Y1410D02*
X1645Y1410D01*
X1664Y1410D02*
X1716Y1410D01*
X1892Y1410D02*
X1945Y1410D01*
X1964Y1410D02*
X2016Y1410D01*
X1591Y1409D02*
X1643Y1409D01*
X1665Y1409D02*
X1717Y1409D01*
X1891Y1409D02*
X1943Y1409D01*
X1965Y1409D02*
X2017Y1409D01*
X1591Y1408D02*
X1642Y1408D01*
X1666Y1408D02*
X1717Y1408D01*
X1891Y1408D02*
X1942Y1408D01*
X1966Y1408D02*
X2017Y1408D01*
X1591Y1407D02*
X1642Y1407D01*
X1667Y1407D02*
X1717Y1407D01*
X1891Y1407D02*
X1942Y1407D01*
X1967Y1407D02*
X2017Y1407D01*
X1591Y1406D02*
X1641Y1406D01*
X1667Y1406D02*
X1718Y1406D01*
X1891Y1406D02*
X1941Y1406D01*
X1967Y1406D02*
X2018Y1406D01*
X1590Y1405D02*
X1640Y1405D01*
X1668Y1405D02*
X1718Y1405D01*
X1890Y1405D02*
X1940Y1405D01*
X1968Y1405D02*
X2018Y1405D01*
X1590Y1404D02*
X1640Y1404D01*
X1668Y1404D02*
X1718Y1404D01*
X1890Y1404D02*
X1940Y1404D01*
X1968Y1404D02*
X2018Y1404D01*
X1590Y1403D02*
X1639Y1403D01*
X1669Y1403D02*
X1718Y1403D01*
X1890Y1403D02*
X1939Y1403D01*
X1969Y1403D02*
X2018Y1403D01*
X1590Y1402D02*
X1639Y1402D01*
X1669Y1402D02*
X1718Y1402D01*
X1890Y1402D02*
X1939Y1402D01*
X1969Y1402D02*
X2018Y1402D01*
X1590Y1401D02*
X1639Y1401D01*
X1669Y1401D02*
X1718Y1401D01*
X1890Y1401D02*
X1939Y1401D01*
X1969Y1401D02*
X2018Y1401D01*
X1590Y1400D02*
X1639Y1400D01*
X1669Y1400D02*
X1718Y1400D01*
X1890Y1400D02*
X1939Y1400D01*
X1969Y1400D02*
X2018Y1400D01*
X1590Y1399D02*
X1639Y1399D01*
X1669Y1399D02*
X1718Y1399D01*
X1890Y1399D02*
X1939Y1399D01*
X1969Y1399D02*
X2018Y1399D01*
X1590Y1398D02*
X1639Y1398D01*
X1670Y1398D02*
X1719Y1398D01*
X1890Y1398D02*
X1939Y1398D01*
X1969Y1398D02*
X2019Y1398D01*
X1590Y1397D02*
X1639Y1397D01*
X1669Y1397D02*
X1718Y1397D01*
X1890Y1397D02*
X1939Y1397D01*
X1969Y1397D02*
X2018Y1397D01*
X1590Y1396D02*
X1639Y1396D01*
X1669Y1396D02*
X1718Y1396D01*
X1890Y1396D02*
X1939Y1396D01*
X1969Y1396D02*
X2018Y1396D01*
X1590Y1395D02*
X1639Y1395D01*
X1669Y1395D02*
X1718Y1395D01*
X1890Y1395D02*
X1939Y1395D01*
X1969Y1395D02*
X2018Y1395D01*
X1590Y1394D02*
X1639Y1394D01*
X1669Y1394D02*
X1718Y1394D01*
X1890Y1394D02*
X1939Y1394D01*
X1969Y1394D02*
X2018Y1394D01*
X1590Y1393D02*
X1639Y1393D01*
X1669Y1393D02*
X1718Y1393D01*
X1890Y1393D02*
X1939Y1393D01*
X1969Y1393D02*
X2018Y1393D01*
X1590Y1392D02*
X1640Y1392D01*
X1668Y1392D02*
X1718Y1392D01*
X1890Y1392D02*
X1940Y1392D01*
X1968Y1392D02*
X2018Y1392D01*
X1590Y1391D02*
X1640Y1391D01*
X1668Y1391D02*
X1718Y1391D01*
X1890Y1391D02*
X1940Y1391D01*
X1968Y1391D02*
X2018Y1391D01*
X1591Y1390D02*
X1641Y1390D01*
X1667Y1390D02*
X1718Y1390D01*
X1891Y1390D02*
X1941Y1390D01*
X1967Y1390D02*
X2017Y1390D01*
X1591Y1389D02*
X1642Y1389D01*
X1666Y1389D02*
X1717Y1389D01*
X1891Y1389D02*
X1942Y1389D01*
X1966Y1389D02*
X2017Y1389D01*
X1591Y1388D02*
X1642Y1388D01*
X1666Y1388D02*
X1717Y1388D01*
X1891Y1388D02*
X1942Y1388D01*
X1966Y1388D02*
X2017Y1388D01*
X1591Y1387D02*
X1643Y1387D01*
X1665Y1387D02*
X1717Y1387D01*
X1891Y1387D02*
X1943Y1387D01*
X1965Y1387D02*
X2017Y1387D01*
X1592Y1386D02*
X1645Y1386D01*
X1663Y1386D02*
X1716Y1386D01*
X1892Y1386D02*
X1945Y1386D01*
X1963Y1386D02*
X2016Y1386D01*
X1592Y1385D02*
X1646Y1385D01*
X1662Y1385D02*
X1716Y1385D01*
X1892Y1385D02*
X1946Y1385D01*
X1962Y1385D02*
X2016Y1385D01*
X1593Y1384D02*
X1648Y1384D01*
X1660Y1384D02*
X1715Y1384D01*
X1893Y1384D02*
X1948Y1384D01*
X1960Y1384D02*
X2015Y1384D01*
X1593Y1383D02*
X1715Y1383D01*
X1893Y1383D02*
X2015Y1383D01*
X1594Y1382D02*
X1715Y1382D01*
X1894Y1382D02*
X2014Y1382D01*
X1594Y1381D02*
X1714Y1381D01*
X1894Y1381D02*
X2014Y1381D01*
X1595Y1380D02*
X1713Y1380D01*
X1895Y1380D02*
X2013Y1380D01*
X1595Y1379D02*
X1713Y1379D01*
X1895Y1379D02*
X2013Y1379D01*
X1596Y1378D02*
X1712Y1378D01*
X1896Y1378D02*
X2012Y1378D01*
X1597Y1377D02*
X1711Y1377D01*
X1897Y1377D02*
X2011Y1377D01*
X1597Y1376D02*
X1711Y1376D01*
X1897Y1376D02*
X2011Y1376D01*
X1598Y1375D02*
X1710Y1375D01*
X1898Y1375D02*
X2010Y1375D01*
X1599Y1374D02*
X1709Y1374D01*
X1899Y1374D02*
X2009Y1374D01*
X1600Y1373D02*
X1708Y1373D01*
X1900Y1373D02*
X2008Y1373D01*
X1601Y1372D02*
X1707Y1372D01*
X1901Y1372D02*
X2007Y1372D01*
X1602Y1371D02*
X1706Y1371D01*
X1902Y1371D02*
X2006Y1371D01*
X1604Y1370D02*
X1704Y1370D01*
X1904Y1370D02*
X2004Y1370D01*
X1605Y1369D02*
X1703Y1369D01*
X1905Y1369D02*
X2003Y1369D01*
X1607Y1368D02*
X1701Y1368D01*
X1907Y1368D02*
X2001Y1368D01*
X1609Y1367D02*
X1699Y1367D01*
X1909Y1367D02*
X1999Y1367D01*
X1611Y1366D02*
X1697Y1366D01*
X1911Y1366D02*
X1997Y1366D01*
X1613Y1365D02*
X1695Y1365D01*
X1913Y1365D02*
X1995Y1365D01*
X1617Y1364D02*
X1691Y1364D01*
X1917Y1364D02*
X1991Y1364D01*
D02*
G04 End of Mask0*
M02*